  0
SECTION
  2
HEADER
  9
$ACADVER
  1
AC1015
  9
$ACADMAINTVER
 70
         6
  9
$DWGCODEPAGE
  3
ANSI_1252
  9
$INSBASE
 10
0.0
 20
0.0
 30
0.0
  9
$EXTMIN
 10
0.0
 20
0.0
 30
0.0
  9
$EXTMAX
 10
594.0
 20
420.0
 30
0.0
  9
$LIMMIN
 10
0.0
 20
0.0
  9
$LIMMAX
 10
594.0
 20
420.0
  9
$ORTHOMODE
 70
         0
  9
$REGENMODE
 70
         1
  9
$FILLMODE
 70
         1
  9
$QTEXTMODE
 70
         0
  9
$MIRRTEXT
 70
         1
  9
$LTSCALE
 40
25.4
  9
$ATTMODE
 70
         1
  9
$TEXTSIZE
 40
0.2
  9
$TRACEWID
 40
0.05
  9
$TEXTSTYLE
  7
Standard
  9
$CLAYER
  8
0
  9
$CELTYPE
  6
CONTINUOUS
  9
$CECOLOR
 62
       256
  9
$CELTSCALE
 40
1.0
  9
$DISPSILH
 70
         0
  9
$DIMSCALE
 40
1.0
  9
$DIMASZ
 40
0.18
  9
$DIMEXO
 40
0.0625
  9
$DIMDLI
 40
0.38
  9
$DIMRND
 40
0.0
  9
$DIMDLE
 40
0.0
  9
$DIMEXE
 40
0.18
  9
$DIMTP
 40
0.0
  9
$DIMTM
 40
0.0
  9
$DIMTXT
 40
0.18
  9
$DIMCEN
 40
0.09
  9
$DIMTSZ
 40
0.0
  9
$DIMTOL
 70
         0
  9
$DIMLIM
 70
         0
  9
$DIMTIH
 70
         1
  9
$DIMTOH
 70
         1
  9
$DIMSE1
 70
         0
  9
$DIMSE2
 70
         0
  9
$DIMTAD
 70
         0
  9
$DIMZIN
 70
         0
  9
$DIMBLK
  1

  9
$DIMASO
 70
         1
  9
$DIMSHO
 70
         1
  9
$DIMPOST
  1

  9
$DIMAPOST
  1

  9
$DIMALT
 70
         0
  9
$DIMALTD
 70
         2
  9
$DIMALTF
 40
25.4
  9
$DIMLFAC
 40
1.0
  9
$DIMTOFL
 70
         0
  9
$DIMTVP
 40
0.0
  9
$DIMTIX
 70
         0
  9
$DIMSOXD
 70
         0
  9
$DIMSAH
 70
         0
  9
$DIMBLK1
  1

  9
$DIMBLK2
  1

  9
$DIMSTYLE
  2
Standard
  9
$DIMCLRD
 70
         0
  9
$DIMCLRE
 70
         0
  9
$DIMCLRT
 70
         0
  9
$DIMTFAC
 40
1.0
  9
$DIMGAP
 40
0.09
  9
$DIMJUST
 70
         0
  9
$DIMSD1
 70
         0
  9
$DIMSD2
 70
         0
  9
$DIMTOLJ
 70
         1
  9
$DIMTZIN
 70
         0
  9
$DIMALTZ
 70
         0
  9
$DIMALTTZ
 70
         0
  9
$DIMUPT
 70
         0
  9
$DIMDEC
 70
         4
  9
$DIMTDEC
 70
         4
  9
$DIMALTU
 70
         2
  9
$DIMALTTD
 70
         2
  9
$DIMTXSTY
  7
Standard
  9
$DIMAUNIT
 70
         0
  9
$DIMADEC
 70
         0
  9
$DIMALTRND
 40
0.0
  9
$DIMAZIN
 70
         0
  9
$DIMDSEP
 70
         0
  9
$DIMATFIT
 70
         3
  9
$DIMFRAC
 70
         0
  9
$DIMLDRBLK
  1

  9
$DIMLUNIT
 70
         2
  9
$DIMLWD
 70
         0
  9
$DIMLWE
 70
         0
  9
$DIMTMOVE
 70
         0
  9
$LUNITS
 70
         2
  9
$LUPREC
 70
         4
  9
$SKETCHINC
 40
0.1
  9
$FILLETRAD
 40
0.0
  9
$AUNITS
 70
         0
  9
$AUPREC
 70
         0
  9
$MENU
  1
acad
  9
$ELEVATION
 40
0.0
  9
$PELEVATION
 40
0.0
  9
$THICKNESS
 40
0.0
  9
$LIMCHECK
 70
         0
  9
$CHAMFERA
 40
0.0
  9
$CHAMFERB
 40
0.0
  9
$CHAMFERC
 40
0.0
  9
$CHAMFERD
 40
0.0
  9
$SKPOLY
 70
         0
  9
$TDCREATE
 40
0.000000000
  9
$TDUCREATE
 40
0.000000000
  9
$TDUPDATE
 40
0.000000000
  9
$TDUUPDATE
 40
0.000000000
  9
$TDINDWG
 40
0.0000000000
  9
$TDUSRTIMER
 40
0.0000000000
  9
$USRTIMER
 70
         1
  9
$ANGBASE
 50
0.0
  9
$ANGDIR
 70
         0
  9
$PDMODE
 70
         0
  9
$PDSIZE
 40
0.0
  9
$PLINEWID
 40
0.0
  9
$SPLFRAME
 70
         0
  9
$SPLINETYPE
 70
         6
  9
$SPLINESEGS
 70
         8
  9
$HANDSEED
  5
16D
  9
$SURFTAB1
 70
         6
  9
$SURFTAB2
 70
         6
  9
$SURFTYPE
 70
         6
  9
$SURFU
 70
         6
  9
$SURFV
 70
         6
  9
$UCSBASE
  2

  9
$UCSNAME
  2

  9
$UCSORG
 10
0.0
 20
0.0
 30
0.0
  9
$UCSXDIR
 10
1.0
 20
0.0
 30
0.0
  9
$UCSYDIR
 10
0.0
 20
1.0
 30
0.0
  9
$UCSORTHOREF
  2

  9
$UCSORTHOVIEW
 70
         0
  9
$UCSORGTOP
 10
0.0
 20
0.0
 30
0.0
  9
$UCSORGBOTTOM
 10
0.0
 20
0.0
 30
0.0
  9
$UCSORGLEFT
 10
0.0
 20
0.0
 30
0.0
  9
$UCSORGRIGHT
 10
0.0
 20
0.0
 30
0.0
  9
$UCSORGFRONT
 10
0.0
 20
0.0
 30
0.0
  9
$UCSORGBACK
 10
0.0
 20
0.0
 30
0.0
  9
$PUCSBASE
  2

  9
$PUCSNAME
  2

  9
$PUCSORG
 10
0.0
 20
0.0
 30
0.0
  9
$PUCSXDIR
 10
1.0
 20
0.0
 30
0.0
  9
$PUCSYDIR
 10
0.0
 20
1.0
 30
0.0
  9
$PUCSORTHOREF
  2

  9
$PUCSORTHOVIEW
 70
         0
  9
$PUCSORGTOP
 10
0.0
 20
0.0
 30
0.0
  9
$PUCSORGBOTTOM
 10
0.0
 20
0.0
 30
0.0
  9
$PUCSORGLEFT
 10
0.0
 20
0.0
 30
0.0
  9
$PUCSORGRIGHT
 10
0.0
 20
0.0
 30
0.0
  9
$PUCSORGFRONT
 10
0.0
 20
0.0
 30
0.0
  9
$PUCSORGBACK
 10
0.0
 20
0.0
 30
0.0
  9
$USERI1
 70
         0
  9
$USERI2
 70
         0
  9
$USERI3
 70
         0
  9
$USERI4
 70
         0
  9
$USERI5
 70
         0
  9
$USERR1
 40
0.0
  9
$USERR2
 40
0.0
  9
$USERR3
 40
0.0
  9
$USERR4
 40
0.0
  9
$USERR5
 40
0.0
  9
$WORLDVIEW
 70
         1
  9
$SHADEDGE
 70
         3
  9
$SHADEDIF
 70
        70
  9
$TILEMODE
 70
         1
  9
$MAXACTVP
 70
        16
  9
$PINSBASE
 10
0.0
 20
0.0
 30
0.0
  9
$PLIMCHECK
 70
         0
  9
$PEXTMIN
 10
1.0000000000E+20
 20
1.0000000000E+20
 30
1.0000000000E+20
  9
$PEXTMAX
 10
-1.0000000000E+20
 20
-1.0000000000E+20
 30
-1.0000000000E+20
  9
$PLIMMIN
 10
0.0
 20
0.0
  9
$PLIMMAX
 10
12.0
 20
9.0
  9
$UNITMODE
 70
         0
  9
$VISRETAIN
 70
         0
  9
$PLINEGEN
 70
         1
  9
$PSLTSCALE
 70
         0
  9
$TREEDEPTH
 70
      3020
  9
$CMLSTYLE
  2
Standard
  9
$CMLJUST
 70
         0
  9
$CMLSCALE
 40
1.0
  9
$PROXYGRAPHICS
 70
         0
  9
$MEASUREMENT
 70
         0
  9
$CELWEIGHT
370
         0
  9
$ENDCAPS
280
         0
  9
$JOINSTYLE
280
         0
  9
$LWDISPLAY
290
         0
  9
$INSUNITS
 70
         0
  9
$HYPERLINKBASE
  1

  9
$STYLESHEET
  1

  9
$XEDIT
290
         1
  9
$CEPSNTYPE
380
         0
  9
$PSTYLEMODE
290
         1
  9
$FINGERPRINTGUID
  2

  9
$VERSIONGUID
  2

  9
$EXTNAMES
290
         1
  9
$PSVPSCALE
 40
0.0
  0
ENDSEC
  0
SECTION
  2
CLASSES
  0
CLASS
  1
LWPOLYLINE
  2
AcDbPolyline
  3
AutoCAD 2000
 90
        0
280
         0
281
         1
  0
CLASS
  1
IMAGE
  2
AcDbRasterImage
  3
ISM
 90
      127
280
         0
281
         1
  0
CLASS
  1
OLE2FRAME
  2
AcDbOle2Frame
  3
AutoCAD 2000
 90
        0
280
         0
281
         1
  0
CLASS
  1
HATCH
  2
AcDbHatch
  3
AutoCAD 2000
 90
        0
280
         0
281
         1
  0
CLASS
  1
DICTIONARYVAR
  2
AcDbDictionaryVar
  3
AutoCAD 2000
 90
        0
280
         0
281
         0
  0
CLASS
  1
RASTERVARIABLES
  2
AcDbRasterVariables
  3
ISM
 90
        0
280
         0
281
         0
  0
CLASS
  1
IMAGEDEF
  2
AcDbRasterImageDef
  3
ISM
 90
        0
280
         0
281
         0
  0
CLASS
  1
IMAGEDEF_REACTOR
  2
AcDbRasterImageDefReactor
  3
ISM
 90
        1
280
         0
281
         0
  0
CLASS
  1
IDBUFFER
  2
AcDbIdBuffer
  3
AutoCAD 2000
 90
        0
280
         0
281
         0
  0
CLASS
  1
SPATIAL_FILTER
  2
AcDbSpatialFilter
  3
AutoCAD 2000
 90
        0
280
         0
281
         0
  0
CLASS
  1
XRECORD
  2
AcDbXrecord
  3
AutoCAD 2000
 90
        0
280
         0
281
         0
  0
CLASS
  1
SORTENTSTABLE
  2
AcDbSortentsTable
  3
AutoCAD 2000
 90
        0
280
         0
281
         0
  0
CLASS
  1
LAYER_INDEX
  2
AcDbLayerIndex
  3
AutoCAD 2000
 90
        0
280
         0
281
         0
  0
CLASS
  1
SPATIAL_INDEX
  2
AcDbSpatialIndex
  3
AutoCAD 2000
 90
        0
280
         0
281
         0
  0
CLASS
  1
OBJECT_PTR
  2
CAseDLPNTableRecord
  3
"ASE-LPNTableRecord"
 90
        1
280
         0
281
         0
  0
CLASS
  1
LAYOUT
  2
AcDbLayout
  3
AutoCAD 2000
 90
        0
280
         0
281
         0
  0
CLASS
  1
PLOTSETTINGS
  2
AcDbPlotSettings
  3
AutoCAD 2000
 90
        0
280
         0
281
         0
  0
CLASS
  1
ACDBDICTIONARYWDFLT
  2
AcDbDictionaryWithDefault
  3
AutoCAD 2000
 90
        0
280
         0
281
         0
  0
CLASS
  1
ACDBPLACEHOLDER
  2
AcDbPlaceHolder
  3
AutoCAD 2000
 90
        0
280
         0
281
         0
  0
CLASS
  1
VBA_PROJECT
  2
AcDbVbaProject
  3
acadvba
 90
        0
280
         0
281
         0
  0
CLASS
  1
WIPEOUT
  2
AcDbWipeout
  3
WipeOut|AutoCAD Express Tool|expresstools@autodesk.com
 90
      127
280
         0
281
         1
  0
CLASS
  1
WIPEOUTVARIABLES
  2
AcDbWipeoutVariables
  3
WipeOut|AutoCAD Express Tool|expresstools@autodesk.com
 90
        0
280
         0
281
         0
  0
CLASS
  1
RTEXT
  2
RText
  3
RText|AutoCAD Express Tool|expresstools@autodesk.com
 90
        0
280
         0
281
         1
  0
CLASS
  1
ARCALIGNEDTEXT
  2
AcDbArcAlignedText
  3
ATEXT|AutoCAD Express Tool|expresstools@autodesk.com
 90
        0
280
         0
281
         1
  0
ENDSEC
  0
SECTION
  2
TABLES
  0
TABLE
  2
VPORT
  5
7
100
AcDbSymbolTable
 70
         1
  0
VPORT
  5
15
100
AcDbSymbolTableRecord
100
AcDbViewportTableRecord
  2
*ACTIVE
 70
         0
 10
0.0
 20
0.0
 11
1.0
 21
1.0
 12
297.0
 22
210.0
 13
0.0
 23
0.0
 14
1.0
 24
1.0
 15
0.0
 25
0.0
 16
0.0
 26
0.0
 36
1.0
 17
0.0
 27
0.0
 37
0.0
 40
420.0
 41
1.604229
 42
50.0
 43
0.0
 44
0.0
 50
0.0
 51
0.0
 71
         0
 72
       100
 73
         1
 74
         1
 75
         0
 76
         0
 77
         0
 78
         0
281
         0
 65
         0
110
0.0
120
0.0
130
0.0
111
1.0
121
0.0
131
0.0
112
0.0
122
1.0
132
0.0
345
0
346
0
 79
         0
146
0.0
  0
ENDTAB
  0
TABLE
  2
LTYPE
  5
4
100
AcDbSymbolTable
 70
         7
  0
LTYPE
  5
11
100
AcDbSymbolTableRecord
100
AcDbLinetypeTableRecord
  2
ByBlock
 70
        64
  3

 72
        65
 73
         0
 40
0.0
  0
LTYPE
  5
12
100
AcDbSymbolTableRecord
100
AcDbLinetypeTableRecord
  2
ByLayer
 70
        64
  3

 72
        65
 73
         0
 40
0.0
  0
LTYPE
  5
13
100
AcDbSymbolTableRecord
100
AcDbLinetypeTableRecord
  2
CONTINUOUS
 70
         0
  3
Solid line
 72
        65
 73
         0
 40
0.0
  0
LTYPE
  5
28
100
AcDbSymbolTableRecord
100
AcDbLinetypeTableRecord
  2
HIDDEN2
 70
        64
  3
_ _ _ _ _ _ _ _ _ _ _ _ _ _ _ _ _ _ _ _ _ _ _ _
 72
        65
 73
         2
 40
0.1875
 49
0.125
 74
         0
 49
-0.0625
 74
         0
  0
LTYPE
  5
29
100
AcDbSymbolTableRecord
100
AcDbLinetypeTableRecord
  2
CENTER2
 70
        64
  3
___ _ ___ _ ___ _ ___ _ ___ _ ___ _ ___ _ ___ _
 72
        65
 73
         4
 40
1.125
 49
0.75
 74
         0
 49
-0.125
 74
         0
 49
0.125
 74
         0
 49
-0.125
 74
         0
  0
LTYPE
  5
2A
100
AcDbSymbolTableRecord
100
AcDbLinetypeTableRecord
  2
PHANTOM2
 70
        64
  3
___ _ _ ___ _ _ ___ _ _ ___ _ _ ___ _ _ ___ _ _
 72
        65
 73
         6
 40
1.25
 49
0.625
 74
         0
 49
-0.125
 74
         0
 49
0.125
 74
         0
 49
-0.125
 74
         0
 49
0.125
 74
         0
 49
-0.125
 74
         0
  0
LTYPE
  5
2B
100
AcDbSymbolTableRecord
100
AcDbLinetypeTableRecord
  2
DOT2
 70
        64
  3
...............................................
 72
        65
 73
         2
 40
0.125
 49
0.0
 74
         0
 49
-0.125
 74
         0
  0
ENDTAB
  0
TABLE
  2
LAYER
  5
2
100
AcDbSymbolTable
 70
         3
  0
LAYER
  5
14
100
AcDbSymbolTableRecord
100
AcDbLayerTableRecord
  2
0
 70
         0
 62
         7
  6
CONTINUOUS
290
         1
370
        -3
390
1D
  0
LAYER
  5
2D
100
AcDbSymbolTableRecord
100
AcDbLayerTableRecord
  2
DEFAULT
 70
         0
 62
         7
  6
CONTINUOUS
290
         1
370
        -3
390
0
  0
LAYER
  5
37
100
AcDbSymbolTableRecord
100
AcDbLayerTableRecord
  2
HEADREST
 70
         0
 62
         7
  6
CONTINUOUS
290
         1
370
        -3
390
0
  0
ENDTAB
  0
TABLE
  2
STYLE
  5
3
100
AcDbSymbolTable
 70
         5
  0
STYLE
  5
17
100
AcDbSymbolTableRecord
100
AcDbTextStyleTableRecord
  2
Standard
 70
         0
 40
0.0
 41
1.0
 50
0.0
 71
         0
 42
0.2
  3
txt
  4

  0
STYLE
  5
4F
100
AcDbSymbolTableRecord
100
AcDbTextStyleTableRecord
  2
seiso_ttf
 70
         0
 40
0.0
 41
1.0
 50
0.0
 71
         0
 42
0.2
  3
seiso.ttf
  4

1001
ACAD
1000
Solid Edge ISO
1071
        2
  0
STYLE
  5
86
100
AcDbSymbolTableRecord
100
AcDbTextStyleTableRecord
  2
arial_ttfB
 70
         0
 40
0.0
 41
1.0
 50
0.0
 71
         0
 42
0.2
  3
arial.ttf
  4

1001
ACAD
1000
SansSerif
1071
 33619714
  0
STYLE
  5
88
100
AcDbSymbolTableRecord
100
AcDbTextStyleTableRecord
  2
arial_ttfI
 70
         0
 40
0.0
 41
1.0
 50
0.0
 71
         0
 42
0.2
  3
arial.ttf
  4

1001
ACAD
1000
SansSerif
1071
 16842498
  0
STYLE
  5
8C
100
AcDbSymbolTableRecord
100
AcDbTextStyleTableRecord
  2
seiso_ttfB
 70
         0
 40
0.0
 41
1.0
 50
0.0
 71
         0
 42
0.2
  3
seiso.ttf
  4

1001
ACAD
1000
Solid Edge ISO
1071
 33554434
  0
ENDTAB
  0
TABLE
  2
VIEW
  5
5
100
AcDbSymbolTable
 70
         0
  0
ENDTAB
  0
TABLE
  2
UCS
  5
6
100
AcDbSymbolTable
 70
         0
  0
ENDTAB
  0
TABLE
  2
APPID
  5
8
100
AcDbSymbolTable
 70
         1
  0
APPID
  5
16
100
AcDbSymbolTableRecord
100
AcDbRegAppTableRecord
  2
ACAD
 70
         0
  0
ENDTAB
  0
TABLE
  2
DIMSTYLE
  5
9
100
AcDbSymbolTable
 70
         1
100
AcDbDimStyleTable
 71
         0
  0
DIMSTYLE
105
18
100
AcDbSymbolTableRecord
100
AcDbDimStyleTableRecord
  2
Standard
 70
         0
  3

  4

 40
1.0
 41
0.18
 42
0.0625
 43
0.38
 44
0.18
 45
0.0
 46
0.0
 47
0.0
 48
0.0
 71
         0
 72
         0
 73
         1
 74
         1
 75
         0
 76
         0
 77
         0
 78
         0
 79
         0
140
0.18
141
0.09
142
0.0
143
25.4
144
1.0
145
0.0
146
1.0
147
0.09
148
0.0
170
         0
171
         2
172
         0
173
         0
174
         0
175
         0
176
         0
177
         0
178
         0
179
         0
271
         4
272
         4
273
         2
274
         2
275
         0
276
         0
277
         2
278
        46
279
         0
280
         0
281
         0
282
         0
283
         1
284
         0
285
         0
286
         0
288
         0
289
         0
340
17
341
0
342
0
343
0
344
0
371
        -2
372
        -2
  0
ENDTAB
  0
TABLE
  2
BLOCK_RECORD
  5
1
100
AcDbSymbolTable
 70
        16
  0
BLOCK_RECORD
  5
A
100
AcDbSymbolTableRecord
100
AcDbBlockTableRecord
  2
*MODEL_SPACE
340
20
  0
BLOCK_RECORD
  5
B
100
AcDbSymbolTableRecord
100
AcDbBlockTableRecord
  2
*PAPER_SPACE
340
21
  0
BLOCK_RECORD
  5
38
100
AcDbSymbolTableRecord
100
AcDbBlockTableRecord
  2
SE0
340
0
102
{BLKREFS
331
3E
102
}
  0
BLOCK_RECORD
  5
39
100
AcDbSymbolTableRecord
100
AcDbBlockTableRecord
  2
SE1
340
0
102
{BLKREFS
331
3A
102
}
  0
BLOCK_RECORD
  5
3F
100
AcDbSymbolTableRecord
100
AcDbBlockTableRecord
  2
SE2
340
0
102
{BLKREFS
331
45
102
}
  0
BLOCK_RECORD
  5
40
100
AcDbSymbolTableRecord
100
AcDbBlockTableRecord
  2
SE3
340
0
102
{BLKREFS
331
41
102
}
  0
BLOCK_RECORD
  5
46
100
AcDbSymbolTableRecord
100
AcDbBlockTableRecord
  2
SE4
340
0
102
{BLKREFS
331
4C
102
}
  0
BLOCK_RECORD
  5
47
100
AcDbSymbolTableRecord
100
AcDbBlockTableRecord
  2
SE5
340
0
102
{BLKREFS
331
48
102
}
  0
BLOCK_RECORD
  5
4D
100
AcDbSymbolTableRecord
100
AcDbBlockTableRecord
  2
SE6
340
0
102
{BLKREFS
331
50
102
}
  0
BLOCK_RECORD
  5
51
100
AcDbSymbolTableRecord
100
AcDbBlockTableRecord
  2
SE7
340
0
102
{BLKREFS
331
53
102
}
  0
BLOCK_RECORD
  5
54
100
AcDbSymbolTableRecord
100
AcDbBlockTableRecord
  2
SE8
340
0
102
{BLKREFS
331
57
102
}
  0
BLOCK_RECORD
  5
58
100
AcDbSymbolTableRecord
100
AcDbBlockTableRecord
  2
SE9
340
0
102
{BLKREFS
331
5B
102
}
  0
BLOCK_RECORD
  5
5C
100
AcDbSymbolTableRecord
100
AcDbBlockTableRecord
  2
SE10
340
0
102
{BLKREFS
331
5F
102
}
  0
BLOCK_RECORD
  5
60
100
AcDbSymbolTableRecord
100
AcDbBlockTableRecord
  2
SE11
340
0
102
{BLKREFS
331
62
102
}
  0
BLOCK_RECORD
  5
81
100
AcDbSymbolTableRecord
100
AcDbBlockTableRecord
  2
SE12
340
0
102
{BLKREFS
331
82
102
}
  0
BLOCK_RECORD
  5
84
100
AcDbSymbolTableRecord
100
AcDbBlockTableRecord
  2
SE13
340
0
102
{BLKREFS
331
85
102
}
  0
BLOCK_RECORD
  5
90
100
AcDbSymbolTableRecord
100
AcDbBlockTableRecord
  2
SE14
340
0
102
{BLKREFS
331
91
102
}
  0
BLOCK_RECORD
  5
94
100
AcDbSymbolTableRecord
100
AcDbBlockTableRecord
  2
SE15
340
0
102
{BLKREFS
331
95
102
}
  0
ENDTAB
  0
ENDSEC
  0
SECTION
  2
BLOCKS
  0
BLOCK
  5
D
100
AcDbEntity
  8
0
390
0
100
AcDbBlockBegin
  2
*MODEL_SPACE
 70
         0
 10
0.0
 20
0.0
 30
0.0
  3
*MODEL_SPACE
  1

  0
ENDBLK
  5
E
100
AcDbEntity
  8
0
390
0
100
AcDbBlockEnd
  0
BLOCK
  5
F
100
AcDbEntity
 67
         1
  8
0
390
0
100
AcDbBlockBegin
  2
*PAPER_SPACE
 70
         0
 10
0.0
 20
0.0
 30
0.0
  3
*PAPER_SPACE
  1

  0
ENDBLK
  5
10
100
AcDbEntity
 67
         1
  8
0
390
0
100
AcDbBlockEnd
  0
BLOCK
  5
DD
100
AcDbEntity
  8
DEFAULT
370
         0
390
0
 62
         1
 48
0.0
100
AcDbBlockBegin
  2
SE0
 70
         0
 10
0.0
 20
0.0
 30
0.0
  3
SE0
  1

  0
ENDBLK
  5
DE
100
AcDbEntity
  8
DEFAULT
370
         0
390
0
 62
         1
 48
0.0
100
AcDbBlockEnd
  0
BLOCK
  5
A1
100
AcDbEntity
  8
DEFAULT
370
         0
390
0
 62
         1
 48
0.0
100
AcDbBlockBegin
  2
SE1
 70
         0
 10
0.0
 20
0.0
 30
0.0
  3
SE1
  1

  0
LINE
  5
A2
100
AcDbEntity
  8
HEADREST
370
         0
390
0
  6
HIDDEN2
 62
         7
100
AcDbLine
 10
378.5038252457
 20
300.6537364177
 30
0.0
 11
378.5038252457
 21
315.7617550631
 31
0.0
  0
LINE
  5
A3
100
AcDbEntity
  8
HEADREST
370
         0
390
0
  6
HIDDEN2
 62
         7
100
AcDbLine
 10
38.5038252457
 20
300.6537364177
 30
0.0
 11
38.5038252457
 21
296.5206295177
 31
0.0
  0
SPLINE
  5
A4
100
AcDbEntity
  8
HEADREST
370
         0
390
0
  6
HIDDEN2
 62
         7
100
AcDbSpline
210
0.0
220
0.0
230
1.0
 70
         8
 71
         3
 72
        22
 73
        18
 74
         0
 42
0.0
 43
0.0
 40
0.0
 40
0.0
 40
0.0
 40
0.0
 40
0.125
 40
0.125
 40
0.25
 40
0.25
 40
0.375
 40
0.375
 40
0.5
 40
0.5
 40
0.625
 40
0.625
 40
0.75
 40
0.75
 40
0.875
 40
0.875
 40
1.0
 40
1.0
 40
1.0
 40
1.0
 10
38.503825245738561
 20
307.27950397228818
 30
0.0
 10
40.329377242461248
 20
307.27950397228818
 30
0.0
 10
42.032756680136671
 20
306.53307874355289
 30
0.0
 10
44.998767792989504
 20
304.66055903780352
 30
0.0
 10
46.295210464333685
 20
303.54196669034638
 30
0.0
 10
48.560436834425431
 20
301.32622275303265
 30
0.0
 10
49.520450934807499
 20
300.22066830634367
 30
0.0
 10
50.909544782859861
 20
298.28981186775349
 30
0.0
 10
51.301180757560431
 20
297.50185750676042
 30
0.0
 10
51.306442061607335
 20
296.57139167623359
 30
0.0
 10
50.916349755291634
 20
296.43158996047504
 30
0.0
 10
49.537515184345487
 20
296.72543718910094
 30
0.0
 10
48.570605497587209
 20
297.14197845961411
 30
0.0
 10
46.316447666901851
 20
298.21142704081518
 30
0.0
 10
45.007047154052124
 20
298.8861270951154
 30
0.0
 10
42.051932448831124
 20
300.10276834044402
 30
0.0
 10
40.328979588467455
 20
300.65373641766371
 30
0.0
 10
38.503825245738561
 20
300.65373641766371
 30
0.0
  0
SPLINE
  5
A5
100
AcDbEntity
  8
HEADREST
370
         0
390
0
  6
HIDDEN2
 62
         7
100
AcDbSpline
210
0.0
220
0.0
230
1.0
 70
         8
 71
         3
 72
        28
 73
        24
 74
         0
 42
0.0
 43
0.0
 40
0.0
 40
0.0
 40
0.0
 40
0.0
 40
0.0624999999999999
 40
0.0624999999999999
 40
0.1249999999999998
 40
0.1249999999999998
 40
0.1874999999999998
 40
0.1874999999999998
 40
0.2499999999999997
 40
0.2499999999999997
 40
0.2812499999999999
 40
0.2812499999999999
 40
0.3125000000000002
 40
0.3125000000000002
 40
0.3437500000000006
 40
0.3437500000000006
 40
0.3750000000000008
 40
0.3750000000000008
 40
0.437500000000001
 40
0.437500000000001
 40
0.5000000000000012
 40
0.5000000000000012
 40
0.5374880186573655
 40
0.5374880186573655
 40
0.5374880186573655
 40
0.5374880186573655
 10
54.025676228329125
 20
296.52062951769511
 30
0.0
 10
54.544599991144942
 20
296.52062951769511
 30
0.0
 10
54.641822293989591
 20
297.00578931492902
 30
0.0
 10
53.94823878138655
 20
298.82198126672887
 30
0.0
 10
53.166861510855561
 20
300.13932877843939
 30
0.0
 10
51.202775984576895
 20
303.05453729529307
 30
0.0
 10
50.001359704782729
 20
304.6833106576492
 30
0.0
 10
47.542660249173998
 20
308.04235140956325
 30
0.0
 10
46.214367277992302
 20
309.79242903557679
 30
0.0
 10
44.663795520055977
 20
312.69037249075313
 30
0.0
 10
44.23046995854088
 20
313.72141463179662
 30
0.0
 10
43.984054736727174
 20
315.8580081504536
 30
0.0
 10
44.216640426291917
 20
316.90386454689025
 30
0.0
 10
45.049345428205989
 20
318.73830035156368
 30
0.0
 10
45.618078621252252
 20
319.55300626142468
 30
0.0
 10
46.79882413066219
 20
321.03511764345603
 30
0.0
 10
47.429018826672056
 20
321.71512966386263
 30
0.0
 10
49.294734404372988
 20
323.5745402075741
 30
0.0
 10
50.511379032939978
 20
324.58658875471855
 30
0.0
 10
52.642916015051917
 20
326.08030627419862
 30
0.0
 10
53.528536842495647
 20
326.52588899629666
 30
0.0
 10
54.338344788292304
 20
326.51739929022636
 30
0.0
 10
54.49617305261431
 20
326.341520386181
 30
0.0
 10
54.498102157806208
 20
326.00408561529724
 30
0.0
  0
SPLINE
  5
A6
100
AcDbEntity
  8
HEADREST
370
         0
390
0
  6
CONTINUOUS
 62
         7
100
AcDbSpline
210
0.0
220
0.0
230
1.0
 70
         8
 71
         3
 72
        26
 73
        22
 74
         0
 42
0.0
 43
0.0
 40
0.5374880186573655
 40
0.5374880186573655
 40
0.5374880186573655
 40
0.5374880186573655
 40
0.5625000000000014
 40
0.5625000000000014
 40
0.6250000000000017
 40
0.6250000000000017
 40
0.687500000000002
 40
0.687500000000002
 40
0.7500000000000022
 40
0.7500000000000022
 40
0.7812500000000022
 40
0.7812500000000022
 40
0.8125000000000021
 40
0.8125000000000021
 40
0.8437500000000021
 40
0.8437500000000021
 40
0.875000000000002
 40
0.875000000000002
 40
0.937500000000001
 40
0.937500000000001
 40
1.0
 40
1.0
 40
1.0
 40
1.0
 10
54.498102157806208
 20
326.00408561529724
 30
0.0
 10
54.499389255518892
 20
325.77894935854169
 30
0.0
 10
54.431277069191928
 20
325.48189570624953
 30
0.0
 10
53.939645505228533
 20
324.20251528285218
 30
0.0
 10
53.167688973532968
 20
322.90333732780152
 30
0.0
 10
51.205565103310811
 20
319.99068293642074
 30
0.0
 10
50.014262326644548
 20
318.37542971605438
 30
0.0
 10
47.552006787598025
 20
315.01182145880915
 30
0.0
 10
46.228584256914175
 20
313.27017975683526
 30
0.0
 10
44.669785027441286
 20
310.36465834930272
 30
0.0
 10
44.235963674023381
 20
309.33058319063673
 30
0.0
 10
43.983687978107447
 20
307.21621135510333
 30
0.0
 10
44.210861043306068
 20
306.15558269611574
 30
0.0
 10
45.040783169820045
 20
304.31645805573339
 30
0.0
 10
45.604156663077099
 20
303.50728657299743
 30
0.0
 10
46.789412158338237
 20
302.01642746616244
 30
0.0
 10
47.410191643369238
 20
301.34628869834478
 30
0.0
 10
49.262906783085008
 20
299.49572434851302
 30
0.0
 10
50.504568627136841
 20
298.461286126841
 30
0.0
 10
52.615835692306071
 20
296.97811590730589
 30
0.0
 10
53.506752465513316
 20
296.52062951769511
 30
0.0
 10
54.025676228329125
 20
296.52062951769511
 30
0.0
  0
LINE
  5
A7
100
AcDbEntity
  8
HEADREST
370
         0
390
0
  6
HIDDEN2
 62
         7
100
AcDbLine
 10
38.5038252457
 20
315.7617550631
 30
0.0
 11
38.5038252457
 21
326.5206295177
 31
0.0
  0
SPLINE
  5
A8
100
AcDbEntity
  8
HEADREST
370
         0
390
0
  6
HIDDEN2
 62
         7
100
AcDbSpline
210
0.0
220
0.0
230
1.0
 70
         8
 71
         3
 72
        22
 73
        18
 74
         0
 42
0.0
 43
0.0
 40
0.0
 40
0.0
 40
0.0
 40
0.0
 40
0.125
 40
0.125
 40
0.25
 40
0.25
 40
0.375
 40
0.375
 40
0.5
 40
0.5
 40
0.625
 40
0.625
 40
0.75
 40
0.75
 40
0.875
 40
0.875
 40
1.0
 40
1.0
 40
1.0
 40
1.0
 10
38.503825245738561
 20
315.76175506310199
 30
0.0
 10
40.329377242461192
 20
315.76175506310204
 30
0.0
 10
42.032756680136757
 20
316.50818029183733
 30
0.0
 10
44.998767792989533
 20
318.38069999758665
 30
0.0
 10
46.295210464333657
 20
319.49929234504384
 30
0.0
 10
48.560436834425431
 20
321.71503628235763
 30
0.0
 10
49.520450934807499
 20
322.82059072904644
 30
0.0
 10
50.909544782859861
 20
324.75144716763668
 30
0.0
 10
51.301180757560431
 20
325.53940152862981
 30
0.0
 10
51.306442061607363
 20
326.46986735915675
 30
0.0
 10
50.916349755291634
 20
326.60966907491519
 30
0.0
 10
49.53751518434543
 20
326.31582184628928
 30
0.0
 10
48.570605497587181
 20
325.89928057577612
 30
0.0
 10
46.316447666901851
 20
324.82983199457504
 30
0.0
 10
45.007047154052124
 20
324.15513194027477
 30
0.0
 10
42.051932448831067
 20
322.93849069494627
 30
0.0
 10
40.328979588467348
 20
322.38752261772652
 30
0.0
 10
38.503825245738561
 20
322.38752261772652
 30
0.0
  0
LINE
  5
A9
100
AcDbEntity
  8
HEADREST
370
         0
390
0
  6
HIDDEN2
 62
         7
100
AcDbLine
 10
50.6779051186
 20
326.5206295177
 30
0.0
 11
38.5038252457
 21
326.5206295177
 31
0.0
  0
LINE
  5
AA
100
AcDbEntity
  8
HEADREST
370
         0
390
0
  6
HIDDEN2
 62
         7
100
AcDbLine
 10
25.7038252457
 20
189.9672683814
 30
0.0
 11
25.7038252457
 21
82.6564052557
 31
0.0
  0
LINE
  5
AB
100
AcDbEntity
  8
HEADREST
370
         0
390
0
  6
CONTINUOUS
 62
         7
100
AcDbLine
 10
22.5038252457
 20
189.9672683814
 30
0.0
 11
22.5038252457
 21
82.6564052557
 31
0.0
  0
LINE
  5
AC
100
AcDbEntity
  8
HEADREST
370
         0
390
0
  6
CONTINUOUS
 62
         7
100
AcDbLine
 10
54.5038252457
 20
189.9672683814
 30
0.0
 11
54.5038252457
 21
227.5057351567
 31
0.0
  0
LINE
  5
AD
100
AcDbEntity
  8
HEADREST
370
         0
390
0
  6
HIDDEN2
 62
         7
100
AcDbLine
 10
38.5038252457
 20
300.6537364177
 30
0.0
 11
38.5038252457
 21
315.7617550631
 31
0.0
  0
LINE
  5
AE
100
AcDbEntity
  8
HEADREST
370
         0
390
0
  6
HIDDEN2
 62
         7
100
AcDbLine
 10
25.7038252457
 20
395.5355238787
 30
0.0
 11
25.7038252457
 21
227.5057351567
 31
0.0
  0
SPLINE
  5
AF
100
AcDbEntity
  8
HEADREST
370
         0
390
0
  6
CONTINUOUS
 62
         7
100
AcDbSpline
210
0.0
220
0.0
230
1.0
 70
         8
 71
         3
 72
        26
 73
        22
 74
         0
 42
0.0
 43
0.0
 40
0.0
 40
0.0
 40
0.0
 40
0.0
 40
0.0625000000000006
 40
0.0625000000000006
 40
0.1250000000000012
 40
0.1250000000000012
 40
0.1562500000000018
 40
0.1562500000000018
 40
0.1875000000000023
 40
0.1875000000000023
 40
0.2187500000000028
 40
0.2187500000000028
 40
0.2500000000000033
 40
0.2500000000000033
 40
0.3125000000000033
 40
0.3125000000000033
 40
0.3750000000000033
 40
0.3750000000000033
 40
0.4375000000000033
 40
0.4375000000000033
 40
0.4621904943124994
 40
0.4621904943124994
 40
0.4621904943124994
 40
0.4621904943124994
 10
362.98197426314806
 20
296.52062951769511
 30
0.0
 10
363.50155689274675
 20
296.52062951769517
 30
0.0
 10
364.39267182960697
 20
296.97791843599697
 30
0.0
 10
366.51706208490043
 20
298.4719124088507
 30
0.0
 10
367.75841493508329
 20
299.50662255771698
 30
0.0
 10
369.62542121118781
 20
301.37563603695361
 30
0.0
 10
370.24895838605323
 20
302.05107623115038
 30
0.0
 10
371.43380563581479
 20
303.5496162567938
 30
0.0
 10
371.99997148232018
 20
304.36817505229419
 30
0.0
 10
372.82077522189951
 20
306.2319156427078
 30
0.0
 10
373.028539434886
 20
307.2913092951116
 30
0.0
 10
372.7486419315569
 20
309.40209230850655
 30
0.0
 10
372.30687794590085
 20
310.43175006601786
 30
0.0
 10
370.74118376868148
 20
313.32119537150828
 30
0.0
 10
369.42991753169827
 20
315.04738657638666
 30
0.0
 10
366.95024473139847
 20
318.43393310468292
 30
0.0
 10
365.78559060698615
 20
320.01326564617915
 30
0.0
 10
363.81798087937898
 20
322.93790654178167
 30
0.0
 10
363.04927442742797
 20
324.24023848075745
 30
0.0
 10
362.57376495268358
 20
325.49322844171655
 30
0.0
 10
362.50751068964303
 20
325.78366820878887
 30
0.0
 10
362.50866773625933
 20
326.00512174100749
 30
0.0
  0
SPLINE
  5
B0
100
AcDbEntity
  8
HEADREST
370
         0
390
0
  6
HIDDEN2
 62
         7
100
AcDbSpline
210
0.0
220
0.0
230
1.0
 70
         8
 71
         3
 72
        28
 73
        24
 74
         0
 42
0.0
 43
0.0
 40
0.4621904943124994
 40
0.4621904943124994
 40
0.4621904943124994
 40
0.4621904943124994
 40
0.5000000000000033
 40
0.5000000000000033
 40
0.5625000000000031
 40
0.5625000000000031
 40
0.625000000000003
 40
0.625000000000003
 40
0.6562500000000026
 40
0.6562500000000026
 40
0.687500000000002
 40
0.687500000000002
 40
0.7187500000000016
 40
0.7187500000000016
 40
0.7500000000000011
 40
0.7500000000000011
 40
0.8125000000000008
 40
0.8125000000000008
 40
0.8750000000000006
 40
0.8750000000000006
 40
0.9375000000000002
 40
0.9375000000000002
 40
1.0
 40
1.0
 40
1.0
 40
1.0
 10
362.50866773625933
 20
326.00512174100749
 30
0.0
 10
362.51043956634379
 20
326.34424207128382
 30
0.0
 10
362.67029076561585
 20
326.52158983633632
 30
0.0
 10
363.50434965068973
 20
326.51903109789515
 30
0.0
 10
364.4025284103235
 20
326.05716980413001
 30
0.0
 10
366.52139430096395
 20
324.56553392556481
 30
0.0
 10
367.76759418773366
 20
323.52563378468392
 30
0.0
 10
369.62317060380855
 20
321.66778263497707
 30
0.0
 10
370.24512861122571
 20
320.9946269243531
 30
0.0
 10
371.43176557815769
 20
319.49462057874342
 30
0.0
 10
371.99838905527128
 20
318.67416378146805
 30
0.0
 10
372.81618581455666
 20
316.82225861421978
 30
0.0
 10
373.02851359428234
 20
315.7695956751661
 30
0.0
 10
372.75225059225039
 20
313.64679301184765
 30
0.0
 10
372.31155511225853
 20
312.61963298062301
 30
0.0
 10
370.74755310244791
 20
309.72885559767485
 30
0.0
 10
369.42685133062326
 20
307.98976597679672
 30
0.0
 10
366.96694227869978
 20
304.63004950469417
 30
0.0
 10
365.7749311923414
 20
303.01235089452604
 30
0.0
 10
363.82459547509148
 20
300.11298238023687
 30
0.0
 10
363.0578506768955
 20
298.82000596484113
 30
0.0
 10
362.36424802316122
 20
296.99952959763493
 30
0.0
 10
362.46239163354926
 20
296.52062951769511
 30
0.0
 10
362.98197426314806
 20
296.52062951769511
 30
0.0
  0
LINE
  5
B1
100
AcDbEntity
  8
HEADREST
370
         0
390
0
  6
CONTINUOUS
 62
         7
100
AcDbLine
 10
22.5038252457
 20
395.5355238787
 30
0.0
 11
22.5038252457
 21
227.5057351567
 31
0.0
  0
LINE
  5
B2
100
AcDbEntity
  8
HEADREST
370
         0
390
0
  6
HIDDEN2
 62
         7
100
AcDbLine
 10
51.3038252457
 20
82.6564052557
 30
0.0
 11
51.3038252457
 21
189.9672683814
 31
0.0
  0
LINE
  5
B3
100
AcDbEntity
  8
HEADREST
370
         0
390
0
  6
CONTINUOUS
 62
         7
100
AcDbLine
 10
54.5038252457
 20
82.6564052557
 30
0.0
 11
54.5038252457
 21
189.9672683814
 31
0.0
  0
LINE
  5
B4
100
AcDbEntity
  8
HEADREST
370
         0
390
0
  6
CONTINUOUS
 62
         7
100
AcDbLine
 10
22.5038252457
 20
227.5057351567
 30
0.0
 11
22.5038252457
 21
189.9672683814
 31
0.0
  0
LINE
  5
B5
100
AcDbEntity
  8
HEADREST
370
         0
390
0
  6
HIDDEN2
 62
         7
100
AcDbLine
 10
362.9819859827
 20
326.5206295177
 30
0.0
 11
362.5038252457
 21
326.5206295177
 31
0.0
  0
LINE
  5
B6
100
AcDbEntity
  8
HEADREST
370
         0
390
0
  6
CONTINUOUS
 62
         7
100
AcDbLine
 10
362.5038252457
 20
326.5206295177
 30
0.0
 11
54.5038252457
 21
326.5206295177
 31
0.0
  0
LINE
  5
B7
100
AcDbEntity
  8
HEADREST
370
         0
390
0
  6
HIDDEN2
 62
         7
100
AcDbLine
 10
54.5038252457
 20
326.5206295177
 30
0.0
 11
54.0217242373
 21
326.5206295177
 31
0.0
  0
LINE
  5
B8
100
AcDbEntity
  8
HEADREST
370
         0
390
0
  6
HIDDEN2
 62
         7
100
AcDbLine
 10
51.3038252457
 20
326.0062361464
 30
0.0
 11
51.3038252457
 21
395.5355238787
 31
0.0
  0
SPLINE
  5
B9
100
AcDbEntity
  8
HEADREST
370
         0
390
0
  6
HIDDEN2
 62
         7
100
AcDbSpline
210
0.0
220
0.0
230
1.0
 70
         8
 71
         3
 72
        22
 73
        18
 74
         0
 42
0.0
 43
0.0
 40
0.0
 40
0.0
 40
0.0
 40
0.0
 40
0.125
 40
0.125
 40
0.25
 40
0.25
 40
0.375
 40
0.375
 40
0.5
 40
0.5
 40
0.625
 40
0.625
 40
0.75
 40
0.75
 40
0.875
 40
0.875
 40
1.0
 40
1.0
 40
1.0
 40
1.0
 10
378.50382524573854
 20
315.76175506310199
 30
0.0
 10
376.67827324901594
 20
315.76175506310204
 30
0.0
 10
374.97489381134039
 20
316.50818029183733
 30
0.0
 10
372.00888269848764
 20
318.38069999758665
 30
0.0
 10
370.71244002714349
 20
319.49929234504384
 30
0.0
 10
368.44721365705169
 20
321.71503628235763
 30
0.0
 10
367.48719955666962
 20
322.82059072904644
 30
0.0
 10
366.09810570861731
 20
324.75144716763668
 30
0.0
 10
365.70646973391672
 20
325.53940152862981
 30
0.0
 10
365.70120842986972
 20
326.46986735915675
 30
0.0
 10
366.09130073618553
 20
326.60966907491519
 30
0.0
 10
367.47013530713167
 20
326.31582184628928
 30
0.0
 10
368.43704499388997
 20
325.89928057577612
 30
0.0
 10
370.69120282457527
 20
324.82983199457504
 30
0.0
 10
372.00060333742499
 20
324.15513194027477
 30
0.0
 10
374.95571804264603
 20
322.93849069494627
 30
0.0
 10
376.67867090300979
 20
322.38752261772652
 30
0.0
 10
378.50382524573854
 20
322.38752261772652
 30
0.0
  0
LINE
  5
BA
100
AcDbEntity
  8
HEADREST
370
         0
390
0
  6
CONTINUOUS
 62
         7
100
AcDbLine
 10
54.5038252457
 20
326.0079615965
 30
0.0
 11
54.5038252457
 21
395.5355238787
 31
0.0
  0
LINE
  5
BB
100
AcDbEntity
  8
HEADREST
370
         0
390
0
  6
CONTINUOUS
 62
         7
100
AcDbLine
 10
362.5038252457
 20
82.6564052557
 30
0.0
 11
394.5038252457
 21
82.6564052557
 31
0.0
  0
LINE
  5
BC
100
AcDbEntity
  8
HEADREST
370
         0
390
0
  6
CONTINUOUS
 62
         7
100
AcDbLine
 10
362.5038252457
 20
189.9672683814
 30
0.0
 11
362.5038252457
 21
82.6564052557
 31
0.0
  0
LINE
  5
BD
100
AcDbEntity
  8
HEADREST
370
         0
390
0
  6
CONTINUOUS
 62
         7
100
AcDbLine
 10
54.0256762283
 20
296.5206295177
 30
0.0
 11
362.9819742631
 21
296.5206295177
 31
0.0
  0
LINE
  5
BE
100
AcDbEntity
  8
HEADREST
370
         0
390
0
  6
HIDDEN2
 62
         7
100
AcDbLine
 10
51.3038252457
 20
227.5057351567
 30
0.0
 11
51.3038252457
 21
297.035022889
 31
0.0
  0
LINE
  5
BF
100
AcDbEntity
  8
HEADREST
370
         0
390
0
  6
HIDDEN2
 62
         7
100
AcDbLine
 10
365.7038252457
 20
297.035022889
 30
0.0
 11
365.7038252457
 21
227.5057351567
 31
0.0
  0
ELLIPSE
  5
C0
100
AcDbEntity
  8
HEADREST
370
         0
390
0
  6
CONTINUOUS
 62
         7
100
AcDbEllipse
 10
378.5038252457
 20
395.5355238787
 30
0.0
 11
15.999999999999986
 21
0.0
 31
0.0
210
0.0
220
0.0
230
1.0
 40
0.2588190451
 41
0.0
 42
6.2831853071795862
  0
LINE
  5
C1
100
AcDbEntity
  8
HEADREST
370
         0
390
0
  6
CONTINUOUS
 62
         7
100
AcDbLine
 10
54.5038252457
 20
227.5057351567
 30
0.0
 11
54.5038252457
 21
296.5206295177
 31
0.0
  0
LINE
  5
C2
100
AcDbEntity
  8
HEADREST
370
         0
390
0
  6
HIDDEN2
 62
         7
100
AcDbLine
 10
54.5038252457
 20
296.5206295177
 30
0.0
 11
54.5038252457
 21
297.0402853994
 31
0.0
  0
LINE
  5
C3
100
AcDbEntity
  8
HEADREST
370
         0
390
0
  6
HIDDEN2
 62
         7
100
AcDbLine
 10
365.7038252457
 20
189.9672683814
 30
0.0
 11
365.7038252457
 21
82.6564052557
 31
0.0
  0
LINE
  5
C4
100
AcDbEntity
  8
HEADREST
370
         0
390
0
  6
CONTINUOUS
 62
         7
100
AcDbLine
 10
394.5038252457
 20
82.6564052557
 30
0.0
 11
394.5038252457
 21
189.9672683814
 31
0.0
  0
LINE
  5
C5
100
AcDbEntity
  8
HEADREST
370
         0
390
0
  6
CONTINUOUS
 62
         7
100
AcDbLine
 10
362.5038252457
 20
227.5057351567
 30
0.0
 11
362.5038252457
 21
189.9672683814
 31
0.0
  0
LINE
  5
C6
100
AcDbEntity
  8
HEADREST
370
         0
390
0
  6
HIDDEN2
 62
         7
100
AcDbLine
 10
378.5038252457
 20
300.6537364177
 30
0.0
 11
378.5038252457
 21
296.5206295177
 31
0.0
  0
LINE
  5
C7
100
AcDbEntity
  8
HEADREST
370
         0
390
0
  6
HIDDEN2
 62
         7
100
AcDbLine
 10
378.5038252457
 20
315.7617550631
 30
0.0
 11
378.5038252457
 21
326.5206295177
 31
0.0
  0
SPLINE
  5
C8
100
AcDbEntity
  8
HEADREST
370
         0
390
0
  6
HIDDEN2
 62
         7
100
AcDbSpline
210
0.0
220
0.0
230
1.0
 70
         8
 71
         3
 72
        22
 73
        18
 74
         0
 42
0.0
 43
0.0
 40
0.0
 40
0.0
 40
0.0
 40
0.0
 40
0.125
 40
0.125
 40
0.25
 40
0.25
 40
0.375
 40
0.375
 40
0.5
 40
0.5
 40
0.625
 40
0.625
 40
0.75
 40
0.75
 40
0.875
 40
0.875
 40
1.0
 40
1.0
 40
1.0
 40
1.0
 10
378.50382524573854
 20
307.27950397228818
 30
0.0
 10
376.67827324901594
 20
307.27950397228818
 30
0.0
 10
374.97489381134045
 20
306.53307874355289
 30
0.0
 10
372.00888269848764
 20
304.66055903780352
 30
0.0
 10
370.71244002714343
 20
303.54196669034638
 30
0.0
 10
368.44721365705169
 20
301.32622275303265
 30
0.0
 10
367.48719955666962
 20
300.22066830634367
 30
0.0
 10
366.09810570861731
 20
298.28981186775349
 30
0.0
 10
365.70646973391672
 20
297.50185750676042
 30
0.0
 10
365.70120842986978
 20
296.57139167623359
 30
0.0
 10
366.09130073618553
 20
296.43158996047504
 30
0.0
 10
367.47013530713167
 20
296.72543718910094
 30
0.0
 10
368.43704499388997
 20
297.14197845961411
 30
0.0
 10
370.69120282457527
 20
298.21142704081518
 30
0.0
 10
372.00060333742499
 20
298.8861270951154
 30
0.0
 10
374.95571804264603
 20
300.10276834044402
 30
0.0
 10
376.67867090300967
 20
300.65373641766371
 30
0.0
 10
378.50382524573854
 20
300.65373641766371
 30
0.0
  0
LINE
  5
C9
100
AcDbEntity
  8
HEADREST
370
         0
390
0
  6
HIDDEN2
 62
         7
100
AcDbLine
 10
365.7038252457
 20
395.5355238787
 30
0.0
 11
365.7038252457
 21
326.0062361464
 31
0.0
  0
LINE
  5
CA
100
AcDbEntity
  8
HEADREST
370
         0
390
0
  6
HIDDEN2
 62
         7
100
AcDbLine
 10
391.3038252457
 20
82.6564052557
 30
0.0
 11
391.3038252457
 21
189.9672683814
 31
0.0
  0
LINE
  5
CB
100
AcDbEntity
  8
HEADREST
370
         0
390
0
  6
CONTINUOUS
 62
         7
100
AcDbLine
 10
394.5038252457
 20
189.9672683814
 30
0.0
 11
394.5038252457
 21
227.5057351567
 31
0.0
  0
LINE
  5
CC
100
AcDbEntity
  8
HEADREST
370
         0
390
0
  6
HIDDEN2
 62
         7
100
AcDbLine
 10
391.3038252457
 20
227.5057351567
 30
0.0
 11
391.3038252457
 21
395.5355238787
 31
0.0
  0
LINE
  5
CD
100
AcDbEntity
  8
HEADREST
370
         0
390
0
  6
HIDDEN2
 62
         7
100
AcDbLine
 10
38.5038252457
 20
296.5206295177
 30
0.0
 11
50.6779051186
 21
296.5206295177
 31
0.0
  0
LINE
  5
CE
100
AcDbEntity
  8
HEADREST
370
         0
390
0
  6
HIDDEN2
 62
         7
100
AcDbLine
 10
366.3297453729
 20
296.5206295177
 30
0.0
 11
378.5038252457
 21
296.5206295177
 31
0.0
  0
LINE
  5
CF
100
AcDbEntity
  8
HEADREST
370
         0
390
0
  6
HIDDEN2
 62
         7
100
AcDbLine
 10
378.5038252457
 20
326.5206295177
 30
0.0
 11
366.3297453729
 21
326.5206295177
 31
0.0
  0
LINE
  5
D0
100
AcDbEntity
  8
HEADREST
370
         0
390
0
  6
HIDDEN2
 62
         7
100
AcDbLine
 10
51.3038252457
 20
189.9672683814
 30
0.0
 11
51.3038252457
 21
227.5057351567
 31
0.0
  0
LINE
  5
D1
100
AcDbEntity
  8
HEADREST
370
         0
390
0
  6
HIDDEN2
 62
         7
100
AcDbLine
 10
365.7038252457
 20
227.5057351567
 30
0.0
 11
365.7038252457
 21
189.9672683814
 31
0.0
  0
LINE
  5
D2
100
AcDbEntity
  8
HEADREST
370
         0
390
0
  6
HIDDEN2
 62
         7
100
AcDbLine
 10
25.7038252457
 20
227.5057351567
 30
0.0
 11
25.7038252457
 21
189.9672683814
 31
0.0
  0
LINE
  5
D3
100
AcDbEntity
  8
HEADREST
370
         0
390
0
  6
HIDDEN2
 62
         7
100
AcDbLine
 10
362.5038252457
 20
297.0475007194
 30
0.0
 11
362.5038252457
 21
296.5206295177
 31
0.0
  0
LINE
  5
D4
100
AcDbEntity
  8
HEADREST
370
         0
390
0
  6
CONTINUOUS
 62
         7
100
AcDbLine
 10
362.5038252457
 20
296.5206295177
 30
0.0
 11
362.5038252457
 21
227.5057351567
 31
0.0
  0
LINE
  5
D5
100
AcDbEntity
  8
HEADREST
370
         0
390
0
  6
HIDDEN2
 62
         7
100
AcDbLine
 10
391.3038252457
 20
189.9672683814
 30
0.0
 11
391.3038252457
 21
227.5057351567
 31
0.0
  0
ELLIPSE
  5
D6
100
AcDbEntity
  8
HEADREST
370
         0
390
0
  6
CONTINUOUS
 62
         7
100
AcDbEllipse
 10
378.5038252457
 20
395.5355238787
 30
0.0
 11
12.800000000000006
 21
0.0
 31
0.0
210
0.0
220
0.0
230
1.0
 40
0.2588190451
 41
0.0
 42
6.2831853071795862
  0
LINE
  5
D7
100
AcDbEntity
  8
HEADREST
370
         0
390
0
  6
CONTINUOUS
 62
         7
100
AcDbLine
 10
362.5038252457
 20
395.5355238787
 30
0.0
 11
362.5038252457
 21
326.0000704663
 31
0.0
  0
LINE
  5
D8
100
AcDbEntity
  8
HEADREST
370
         0
390
0
  6
CONTINUOUS
 62
         7
100
AcDbLine
 10
54.5038252457
 20
82.6564052557
 30
0.0
 11
22.5038252457
 21
82.6564052557
 31
0.0
  0
ELLIPSE
  5
D9
100
AcDbEntity
  8
HEADREST
370
         0
390
0
  6
CONTINUOUS
 62
         7
100
AcDbEllipse
 10
38.5038252457
 20
395.5355238787
 30
0.0
 11
12.800000000000006
 21
0.0
 31
0.0
210
0.0
220
0.0
230
1.0
 40
0.2588190451
 41
0.0
 42
6.2831853071795862
  0
LINE
  5
DA
100
AcDbEntity
  8
HEADREST
370
         0
390
0
  6
CONTINUOUS
 62
         7
100
AcDbLine
 10
394.5038252457
 20
227.5057351567
 30
0.0
 11
394.5038252457
 21
395.5355238787
 31
0.0
  0
ELLIPSE
  5
DB
100
AcDbEntity
  8
HEADREST
370
         0
390
0
  6
CONTINUOUS
 62
         7
100
AcDbEllipse
 10
38.5038252457
 20
395.5355238787
 30
0.0
 11
15.999999999999986
 21
0.0
 31
0.0
210
0.0
220
0.0
230
1.0
 40
0.2588190451
 41
0.0
 42
6.2831853071795862
  0
ENDBLK
  5
DC
100
AcDbEntity
  8
HEADREST
370
         0
390
0
  6
CONTINUOUS
 62
         7
100
AcDbBlockEnd
  0
BLOCK
  5
F9
100
AcDbEntity
  8
DEFAULT
370
         0
390
0
 62
         1
 48
0.0
100
AcDbBlockBegin
  2
SE2
 70
         0
 10
0.0
 20
0.0
 30
0.0
  3
SE2
  1

  0
ENDBLK
  5
FA
100
AcDbEntity
  8
DEFAULT
370
         0
390
0
 62
         1
 48
0.0
100
AcDbBlockEnd
  0
BLOCK
  5
DF
100
AcDbEntity
  8
DEFAULT
370
         0
390
0
 62
         1
 48
0.0
100
AcDbBlockBegin
  2
SE3
 70
         0
 10
0.0
 20
0.0
 30
0.0
  3
SE3
  1

  0
ARC
  5
E0
100
AcDbEntity
  8
HEADREST
370
         0
390
0
  6
HIDDEN2
 62
         7
100
AcDbCircle
 10
461.6875192771
 20
311.5206295177
 30
0.0
 40
15.0
100
AcDbArc
 50
196.4239064858
 51
313.5760935142
  0
LINE
  5
E1
100
AcDbEntity
  8
HEADREST
370
         0
390
0
  6
HIDDEN2
 62
         7
100
AcDbLine
 10
451.3477593982
 20
322.3875226177
 30
0.0
 11
447.2995780029
 21
307.2795039723
 31
0.0
  0
ARC
  5
E2
100
AcDbEntity
  8
HEADREST
370
         0
390
0
  6
HIDDEN2
 62
         7
100
AcDbCircle
 10
461.6875192771
 20
311.5206295177
 30
0.0
 40
15.0
100
AcDbArc
 50
0.0
 51
17.4746544606
  0
ARC
  5
E3
100
AcDbEntity
  8
HEADREST
370
         0
390
0
  6
HIDDEN2
 62
         7
100
AcDbCircle
 10
461.6875192771
 20
311.5206295177
 30
0.0
 40
15.0
100
AcDbArc
 50
132.0767666189
 51
196.9521035518
  0
ARC
  5
E4
100
AcDbEntity
  8
HEADREST
370
         0
390
0
  6
HIDDEN2
 62
         7
100
AcDbCircle
 10
461.6875192771
 20
311.5206295177
 30
0.0
 40
15.0
100
AcDbArc
 50
264.8382922587
 51
272.4359751228
  0
ARC
  5
E5
100
AcDbEntity
  8
HEADREST
370
         0
390
0
  6
HIDDEN2
 62
         7
100
AcDbCircle
 10
461.6875192771
 20
311.5206295177
 30
0.0
 40
15.0
100
AcDbArc
 50
309.4503909641
 51
360.0
  0
ARC
  5
E6
100
AcDbEntity
  8
HEADREST
370
         0
390
0
  6
HIDDEN2
 62
         7
100
AcDbCircle
 10
461.6875192771
 20
311.5206295177
 30
0.0
 40
15.0
100
AcDbArc
 50
16.4239064858
 51
133.5760935142
  0
LINE
  5
E7
100
AcDbEntity
  8
HEADREST
370
         0
390
0
  6
HIDDEN2
 62
         7
100
AcDbLine
 10
421.4337632743
 20
189.9672683814
 30
0.0
 11
421.4337632743
 21
82.6564052557
 31
0.0
  0
LINE
  5
E8
100
AcDbEntity
  8
HEADREST
370
         0
390
0
  6
HIDDEN2
 62
         7
100
AcDbLine
 10
472.0272791559
 20
300.6537364177
 30
0.0
 11
476.0754605512
 21
315.7617550631
 31
0.0
  0
LINE
  5
E9
100
AcDbEntity
  8
HEADREST
370
         0
390
0
  6
HIDDEN2
 62
         7
100
AcDbLine
 10
447.2995780029
 20
307.2795039723
 30
0.0
 11
426.8119456044
 21
230.818618934
 31
0.0
  0
LINE
  5
EA
100
AcDbEntity
  8
HEADREST
370
         0
390
0
  6
CONTINUOUS
 62
         7
100
AcDbLine
 10
418.2337632743
 20
189.9672683814
 30
0.0
 11
418.2337632743
 21
82.6564052557
 31
0.0
  0
ARC
  5
EB
100
AcDbEntity
  8
HEADREST
370
         0
390
0
  6
CONTINUOUS
 62
         7
100
AcDbCircle
 10
579.2712614246
 20
189.9672683814
 30
0.0
 40
129.0374981503
100
AcDbArc
 50
165.0
 51
180.0
  0
LINE
  5
EC
100
AcDbEntity
  8
HEADREST
370
         0
390
0
  6
CONTINUOUS
 62
         7
100
AcDbLine
 10
468.7444291527
 20
399.6766286003
 30
0.0
 11
423.7209829602
 21
231.6468398783
 31
0.0
  0
LINE
  5
ED
100
AcDbEntity
  8
HEADREST
370
         0
390
0
  6
HIDDEN2
 62
         7
100
AcDbLine
 10
447.0337632743
 20
82.6564052557
 30
0.0
 11
447.0337632743
 21
189.9672683814
 31
0.0
  0
LINE
  5
EE
100
AcDbEntity
  8
HEADREST
370
         0
390
0
  6
HIDDEN2
 62
         7
100
AcDbLine
 10
471.8353917968
 20
398.848407656
 30
0.0
 11
451.3477593982
 21
322.3875226177
 31
0.0
  0
LINE
  5
EF
100
AcDbEntity
  8
HEADREST
370
         0
390
0
  6
CONTINUOUS
 62
         7
100
AcDbLine
 10
450.2337632743
 20
82.6564052557
 30
0.0
 11
450.2337632743
 21
189.9672683814
 31
0.0
  0
ARC
  5
F0
100
AcDbEntity
  8
HEADREST
370
         0
390
0
  6
CONTINUOUS
 62
         7
100
AcDbCircle
 10
579.2712614246
 20
189.9672683814
 30
0.0
 40
161.0374981503
100
AcDbArc
 50
165.0
 51
180.0
  0
LINE
  5
F1
100
AcDbEntity
  8
HEADREST
370
         0
390
0
  6
CONTINUOUS
 62
         7
100
AcDbLine
 10
454.6306094015
 20
223.364630435
 30
0.0
 11
499.6540555939
 21
391.3944191571
 31
0.0
  0
LINE
  5
F2
100
AcDbEntity
  8
HEADREST
370
         0
390
0
  6
HIDDEN2
 62
         7
100
AcDbLine
 10
476.0754605512
 20
315.7617550631
 30
0.0
 11
496.5630929498
 21
392.2226401014
 31
0.0
  0
LINE
  5
F3
100
AcDbEntity
  8
HEADREST
370
         0
390
0
  6
HIDDEN2
 62
         7
100
AcDbLine
 10
451.5396467574
 20
224.1928513794
 30
0.0
 11
472.0272791559
 21
300.6537364177
 31
0.0
  0
ARC
  5
F4
100
AcDbEntity
  8
HEADREST
370
         0
390
0
  6
HIDDEN2
 62
         7
100
AcDbCircle
 10
579.2712614246
 20
189.9672683814
 30
0.0
 40
132.2374981503
100
AcDbArc
 50
165.0
 51
180.0
  0
ARC
  5
F5
100
AcDbEntity
  8
HEADREST
370
         0
390
0
  6
HIDDEN2
 62
         7
100
AcDbCircle
 10
579.2712614246
 20
189.9672683814
 30
0.0
 40
157.8374981503
100
AcDbArc
 50
165.0
 51
180.0
  0
LINE
  5
F6
100
AcDbEntity
  8
HEADREST
370
         0
390
0
  6
CONTINUOUS
 62
         7
100
AcDbLine
 10
450.2337632743
 20
82.6564052557
 30
0.0
 11
418.2337632743
 21
82.6564052557
 31
0.0
  0
LINE
  5
F7
100
AcDbEntity
  8
HEADREST
370
         0
390
0
  6
CONTINUOUS
 62
         7
100
AcDbLine
 10
499.6540555939
 20
391.3944191571
 30
0.0
 11
468.7444291527
 21
399.6766286003
 31
0.0
  0
ENDBLK
  5
F8
100
AcDbEntity
  8
HEADREST
370
         0
390
0
  6
CONTINUOUS
 62
         7
100
AcDbBlockEnd
  0
BLOCK
  5
133
100
AcDbEntity
  8
DEFAULT
370
         0
390
0
 62
         1
 48
0.0
100
AcDbBlockBegin
  2
SE4
 70
         0
 10
0.0
 20
0.0
 30
0.0
  3
SE4
  1

  0
ENDBLK
  5
134
100
AcDbEntity
  8
DEFAULT
370
         0
390
0
 62
         1
 48
0.0
100
AcDbBlockEnd
  0
BLOCK
  5
FB
100
AcDbEntity
  8
DEFAULT
370
         0
390
0
 62
         1
 48
0.0
100
AcDbBlockBegin
  2
SE5
 70
         0
 10
0.0
 20
0.0
 30
0.0
  3
SE5
  1

  0
SPLINE
  5
FC
100
AcDbEntity
  8
HEADREST
370
         0
390
0
  6
HIDDEN2
 62
         7
100
AcDbSpline
210
0.0
220
0.0
230
1.0
 70
         8
 71
         3
 72
        22
 73
        18
 74
         0
 42
0.0
 43
0.0
 40
0.0
 40
0.0
 40
0.0
 40
0.0
 40
0.125
 40
0.125
 40
0.25
 40
0.25
 40
0.375
 40
0.375
 40
0.5
 40
0.5
 40
0.625
 40
0.625
 40
0.75
 40
0.75
 40
0.875
 40
0.875
 40
1.0
 40
1.0
 40
1.0
 40
1.0
 10
38.503825245738561
 20
59.700421997067771
 30
0.0
 10
40.329377242461248
 20
59.700421997067771
 30
0.0
 10
42.032756680136671
 20
59.495671331465601
 30
0.0
 10
44.998767792989504
 20
58.690746364395736
 30
0.0
 10
46.295210464333685
 20
58.090578951134795
 30
0.0
 10
48.560436834425431
 20
56.403599943224037
 30
0.0
 10
49.520450934807499
 20
55.318655021691846
 30
0.0
 10
50.909544782859861
 20
52.575958663231944
 30
0.0
 10
51.301180757560431
 20
50.940541949844899
 30
0.0
 10
51.306442061607335
 20
47.485342851067891
 30
0.0
 10
50.916349755291634
 20
45.663546942396799
 30
0.0
 10
49.537515184345487
 20
42.328415339979017
 30
0.0
 10
48.570605497587209
 20
40.819852715867199
 30
0.0
 10
46.316447666901851
 20
38.25596302017312
 30
0.0
 10
45.007047154052124
 20
37.163534677116274
 30
0.0
 10
42.051932448831124
 20
35.53145729688795
 30
0.0
 10
40.328979588467455
 20
34.972720844067631
 30
0.0
 10
38.503825245738561
 20
34.972720844067631
 30
0.0
  0
LINE
  5
FD
100
AcDbEntity
  8
HEADREST
370
         0
390
0
  6
HIDDEN2
 62
         7
100
AcDbLine
 10
38.5038252457
 20
55.6522406018
 30
0.0
 11
38.5038252457
 21
59.7004219971
 31
0.0
  0
SPLINE
  5
FE
100
AcDbEntity
  8
HEADREST
370
         0
390
0
  6
HIDDEN2
 62
         7
100
AcDbSpline
210
0.0
220
0.0
230
1.0
 70
         8
 71
         3
 72
        14
 73
        10
 74
         0
 42
0.0
 43
0.0
 40
0.0
 40
0.0
 40
0.0
 40
0.0
 40
0.0624999999999999
 40
0.0624999999999999
 40
0.1249999999999998
 40
0.1249999999999998
 40
0.1874999999999998
 40
0.1874999999999998
 40
0.2477238131638752
 40
0.2477238131638752
 40
0.2477238131638752
 40
0.2477238131638752
 10
54.025676228329125
 20
45.312480722927901
 30
0.0
 10
54.544599991144942
 20
47.460389340995178
 30
0.0
 10
54.641822293989591
 20
49.668477031801054
 30
0.0
 10
53.94823878138655
 20
53.582887155080307
 30
0.0
 10
53.166861510855561
 20
55.274626054447623
 30
0.0
 10
51.202775984576895
 20
57.846579358469484
 30
0.0
 10
50.001359704782729
 20
58.782822086094257
 30
0.0
 10
47.587431923852755
 20
59.990443470038095
 30
0.0
 10
46.31098622055174
 20
60.313321772764247
 30
0.0
 10
45.294746412838428
 20
60.312571575387459
 30
0.0
  0
SPLINE
  5
FF
100
AcDbEntity
  8
HEADREST
370
         0
390
0
  6
CONTINUOUS
 62
         7
100
AcDbSpline
210
0.0
220
0.0
230
1.0
 70
         8
 71
         3
 72
        22
 73
        18
 74
         0
 42
0.0
 43
0.0
 40
0.2477238131638752
 40
0.2477238131638752
 40
0.2477238131638752
 40
0.2477238131638752
 40
0.2499999999999997
 40
0.2499999999999997
 40
0.2812499999999999
 40
0.2812499999999999
 40
0.3125000000000002
 40
0.3125000000000002
 40
0.3437500000000006
 40
0.3437500000000006
 40
0.3750000000000008
 40
0.3750000000000008
 40
0.437500000000001
 40
0.437500000000001
 40
0.5000000000000012
 40
0.5000000000000012
 40
0.5374887217310512
 40
0.5374887217310512
 40
0.5374887217310512
 40
0.5374887217310512
 10
45.294746412838428
 20
60.312571575387459
 30
0.0
 10
45.256337159901072
 20
60.31254322133109
 30
0.0
 10
45.218299610289478
 20
60.312052564952459
 30
0.0
 10
44.663795520055977
 20
60.297973480300676
 30
0.0
 10
44.23046995854088
 20
60.19047496272016
 30
0.0
 10
43.984054736727174
 20
59.71335966533389
 30
0.0
 10
44.216640426291917
 20
59.349655985481441
 30
0.0
 10
45.049345428205989
 20
58.500609341694194
 30
0.0
 10
45.618078621252252
 20
58.013490494715079
 30
0.0
 10
46.79882413066219
 20
56.944730766706797
 30
0.0
 10
47.429018826672056
 20
56.352051188060727
 30
0.0
 10
49.294734404372988
 20
54.417591058327218
 30
0.0
 10
50.511379032939978
 20
52.924956202109193
 30
0.0
 10
52.642916015051917
 20
49.397194476769783
 30
0.0
 10
53.528536842495647
 20
47.389670328851466
 30
0.0
 10
54.338350482521115
 20
44.006326001393354
 30
0.0
 10
54.496178972582491
 20
42.698382183890892
 30
0.0
 10
54.498102266180624
 20
41.43166400745173
 30
0.0
  0
SPLINE
  5
100
100
AcDbEntity
  8
HEADREST
370
         0
390
0
  6
HIDDEN2
 62
         7
100
AcDbSpline
210
0.0
220
0.0
230
1.0
 70
         8
 71
         3
 72
        26
 73
        22
 74
         0
 42
0.0
 43
0.0
 40
0.5374887217310512
 40
0.5374887217310512
 40
0.5374887217310512
 40
0.5374887217310512
 40
0.5625000000000014
 40
0.5625000000000014
 40
0.6250000000000017
 40
0.6250000000000017
 40
0.687500000000002
 40
0.687500000000002
 40
0.7500000000000022
 40
0.7500000000000022
 40
0.7812500000000022
 40
0.7812500000000022
 40
0.8125000000000021
 40
0.8125000000000021
 40
0.8437500000000021
 40
0.8437500000000021
 40
0.875000000000002
 40
0.875000000000002
 40
0.937500000000001
 40
0.937500000000001
 40
1.0
 40
1.0
 40
1.0
 40
1.0
 10
54.498102266180624
 20
41.43166400745173
 30
0.0
 10
54.499385426265981
 20
40.586550081547536
 30
0.0
 10
54.431273119410321
 20
39.75978623425798
 30
0.0
 10
53.939645505228533
 20
37.015052278184022
 30
0.0
 10
53.167688973532968
 20
35.352195573990343
 30
0.0
 10
51.205565103310811
 20
32.781259217330827
 30
0.0
 10
50.014262326644548
 20
31.850609155103015
 30
0.0
 10
47.552006787598025
 20
30.614798909174521
 30
0.0
 10
46.228584256914175
 20
30.289442269608802
 30
0.0
 10
44.669785027441286
 20
30.325757156379137
 30
0.0
 10
44.235963674023381
 20
30.433761279996762
 30
0.0
 10
43.983687978107447
 20
30.902602879668148
 30
0.0
 10
44.210861043306068
 20
31.268196962076765
 30
0.0
 10
45.040783169820045
 20
32.116816764653514
 30
0.0
 10
45.604156663077099
 20
32.599122441824626
 30
0.0
 10
46.789412158338237
 20
33.671463271833886
 30
0.0
 10
47.410191643369238
 20
34.254836290552397
 30
0.0
 10
49.262906783085008
 20
36.171556170304306
 30
0.0
 10
50.504568627136841
 20
37.694305030680219
 30
0.0
 10
52.615835692306071
 20
41.177465781015137
 30
0.0
 10
53.506752465513316
 20
43.164572104860653
 30
0.0
 10
54.025676228329125
 20
45.312480722927901
 30
0.0
  0
LINE
  5
101
100
AcDbEntity
  8
HEADREST
370
         0
390
0
  6
CONTINUOUS
 62
         7
100
AcDbLine
 10
38.5038252457
 20
30.9245394488
 30
0.0
 11
38.5038252457
 21
35.1646082032
 31
0.0
  0
LINE
  5
102
100
AcDbEntity
  8
HEADREST
370
         0
390
0
  6
HIDDEN2
 62
         7
100
AcDbLine
 10
38.5038252457
 20
35.1646082032
 30
0.0
 11
38.5038252457
 21
55.6522406018
 31
0.0
  0
SPLINE
  5
103
100
AcDbEntity
  8
HEADREST
370
         0
390
0
  6
CONTINUOUS
 62
         7
100
AcDbSpline
210
0.0
220
0.0
230
1.0
 70
         8
 71
         3
 72
        10
 73
         6
 74
         0
 42
0.0
 43
0.0
 40
0.0
 40
0.0
 40
0.0
 40
0.0
 40
0.125
 40
0.125
 40
0.2082883080494488
 40
0.2082883080494488
 40
0.2082883080494488
 40
0.2082883080494488
 10
38.503825245738561
 20
30.924539448788082
 30
0.0
 10
40.329377242461192
 20
30.924539448788074
 30
0.0
 10
42.032756680136757
 20
31.129290114390241
 30
0.0
 10
44.503898425544612
 20
31.79991595238122
 30
0.0
 10
45.409207353005911
 20
32.155853238458363
 30
0.0
 10
46.238413928544496
 20
32.613058755294261
 30
0.0
  0
SPLINE
  5
104
100
AcDbEntity
  8
HEADREST
370
         0
390
0
  6
HIDDEN2
 62
         7
100
AcDbSpline
210
0.0
220
0.0
230
1.0
 70
         8
 71
         3
 72
        20
 73
        16
 74
         0
 42
0.0
 43
0.0
 40
0.2082883080494488
 40
0.2082883080494488
 40
0.2082883080494488
 40
0.2082883080494488
 40
0.25
 40
0.25
 40
0.375
 40
0.375
 40
0.5
 40
0.5
 40
0.625
 40
0.625
 40
0.75
 40
0.75
 40
0.875
 40
0.875
 40
1.0
 40
1.0
 40
1.0
 40
1.0
 10
46.238413928544496
 20
32.613058755294261
 30
0.0
 10
46.653689614319063
 20
32.842032258574321
 30
0.0
 10
47.049877951189423
 20
33.096405003856361
 30
0.0
 10
48.560436834425431
 20
34.221361502631815
 30
0.0
 10
49.520450934807499
 20
35.306306424164021
 30
0.0
 10
50.909544782859861
 20
38.049002782623937
 30
0.0
 10
51.301180757560431
 20
39.684419496010968
 30
0.0
 10
51.306442061607363
 20
43.139618594787983
 30
0.0
 10
50.916349755291634
 20
44.961414503459082
 30
0.0
 10
49.53751518434543
 20
48.296546105876843
 30
0.0
 10
48.570605497587181
 20
49.805108729988667
 30
0.0
 10
46.316447666901851
 20
52.36899842568274
 30
0.0
 10
45.007047154052124
 20
53.461426768739592
 30
0.0
 10
42.051932448831067
 20
55.093504148967909
 30
0.0
 10
40.328979588467348
 20
55.652240601788222
 30
0.0
 10
38.503825245738561
 20
55.652240601788229
 30
0.0
  0
LINE
  5
105
100
AcDbEntity
  8
HEADREST
370
         0
390
0
  6
CONTINUOUS
 62
         7
100
AcDbLine
 10
54.5038252457
 20
67.8242038191
 30
0.0
 11
54.5038252457
 21
72.7662367257
 31
0.0
  0
LINE
  5
106
100
AcDbEntity
  8
HEADREST
370
         0
390
0
  6
HIDDEN2
 62
         7
100
AcDbLine
 10
51.3038252457
 20
49.1943960826
 30
0.0
 11
51.3038252457
 21
67.8242038191
 31
0.0
  0
SPLINE
  5
107
100
AcDbEntity
  8
HEADREST
370
         0
390
0
  6
HIDDEN2
 62
         7
100
AcDbSpline
210
0.0
220
0.0
230
1.0
 70
         8
 71
         3
 72
        26
 73
        22
 74
         0
 42
0.0
 43
0.0
 40
0.0
 40
0.0
 40
0.0
 40
0.0
 40
0.0625000000000006
 40
0.0625000000000006
 40
0.1250000000000012
 40
0.1250000000000012
 40
0.1562500000000018
 40
0.1562500000000018
 40
0.1875000000000023
 40
0.1875000000000023
 40
0.2187500000000028
 40
0.2187500000000028
 40
0.2500000000000033
 40
0.2500000000000033
 40
0.3125000000000033
 40
0.3125000000000033
 40
0.3750000000000033
 40
0.3750000000000033
 40
0.4375000000000033
 40
0.4375000000000033
 40
0.4621861077759557
 40
0.4621861077759557
 40
0.4621861077759557
 40
0.4621861077759557
 10
362.98197426314806
 20
45.31248072292793
 30
0.0
 10
363.50155689274675
 20
43.161844949654899
 30
0.0
 10
364.39267182960697
 20
41.173639565915593
 30
0.0
 10
366.51706208490043
 20
37.673669719762785
 30
0.0
 10
367.75841493508329
 20
36.154591119284305
 30
0.0
 10
369.62542121118781
 20
34.227358550283917
 30
0.0
 10
370.24895838605323
 20
33.643051976020118
 30
0.0
 10
371.43380563581479
 20
32.572349078380292
 30
0.0
 10
371.99997148232018
 20
32.087839269920416
 30
0.0
 10
372.82077522189951
 20
31.23845315478831
 30
0.0
 10
373.028539434886
 20
30.880609426898786
 30
0.0
 10
372.7486419315569
 20
30.42363057445818
 30
0.0
 10
372.30687794590085
 20
30.321081134209923
 30
0.0
 10
370.74118376868148
 20
30.296860756983147
 30
0.0
 10
369.42991753169827
 20
30.6215231239992
 30
0.0
 10
366.95024473139847
 20
31.87862483421554
 30
0.0
 10
365.78559060698615
 20
32.794623978646534
 30
0.0
 10
363.81798087937898
 20
35.389407044049648
 30
0.0
 10
363.04927442742797
 20
37.078392494965918
 30
0.0
 10
362.57378887547134
 20
39.791239376249479
 30
0.0
 10
362.50753423339188
 20
40.600848599559519
 30
0.0
 10
362.50866712595655
 20
41.431521186050155
 30
0.0
  0
SPLINE
  5
108
100
AcDbEntity
  8
HEADREST
370
         0
390
0
  6
CONTINUOUS
 62
         7
100
AcDbSpline
210
0.0
220
0.0
230
1.0
 70
         8
 71
         3
 72
        22
 73
        18
 74
         0
 42
0.0
 43
0.0
 40
0.4621861077759557
 40
0.4621861077759557
 40
0.4621861077759557
 40
0.4621861077759557
 40
0.5000000000000033
 40
0.5000000000000033
 40
0.5625000000000031
 40
0.5625000000000031
 40
0.625000000000003
 40
0.625000000000003
 40
0.6562500000000026
 40
0.6562500000000026
 40
0.687500000000002
 40
0.687500000000002
 40
0.7187500000000016
 40
0.7187500000000016
 40
0.7500000000000011
 40
0.7500000000000011
 40
0.7515231717711662
 40
0.7515231717711662
 40
0.7515231717711662
 40
0.7515231717711662
 10
362.50866712595655
 20
41.431521186050155
 30
0.0
 10
362.51040247758561
 20
42.703935774210798
 30
0.0
 10
362.67025429220536
 20
44.025772922528759
 30
0.0
 10
363.50434965068973
 20
47.468766137109114
 30
0.0
 10
364.4025284103235
 20
49.469854154450879
 30
0.0
 10
366.52139430096395
 20
52.956120323132723
 30
0.0
 10
367.76759418773366
 20
54.480035157053244
 30
0.0
 10
369.62317060380855
 20
56.395184772603898
 30
0.0
 10
370.24512861122571
 20
56.97838873049438
 30
0.0
 10
371.43176557815769
 20
58.050828459612056
 30
0.0
 10
371.99838905527128
 20
58.536054400017392
 30
0.0
 10
372.81618581455666
 20
59.381193605749509
 30
0.0
 10
373.02851359428234
 20
59.73905825431163
 30
0.0
 10
372.75225059225039
 20
60.200706993121841
 30
0.0
 10
372.31155511225853
 20
60.303170416650751
 30
0.0
 10
371.76481050940015
 20
60.31229351245296
 30
0.0
 10
371.73923477627955
 20
60.312512006180896
 30
0.0
 10
371.71349924758437
 20
60.312525744548388
 30
0.0
  0
SPLINE
  5
109
100
AcDbEntity
  8
HEADREST
370
         0
390
0
  6
HIDDEN2
 62
         7
100
AcDbSpline
210
0.0
220
0.0
230
1.0
 70
         8
 71
         3
 72
        14
 73
        10
 74
         0
 42
0.0
 43
0.0
 40
0.7515231717711662
 40
0.7515231717711662
 40
0.7515231717711662
 40
0.7515231717711662
 40
0.8125000000000008
 40
0.8125000000000008
 40
0.8750000000000006
 40
0.8750000000000006
 40
0.9375000000000002
 40
0.9375000000000002
 40
1.0
 40
1.0
 40
1.0
 40
1.0
 10
371.71349924758437
 20
60.312525744548388
 30
0.0
 10
370.68323401924272
 20
60.313075729842595
 30
0.0
 10
369.39687641840305
 20
59.985479668616364
 30
0.0
 10
366.96694227869978
 20
58.756032933487859
 30
0.0
 10
365.7749311923414
 20
57.817152905467154
 30
0.0
 10
363.82459547509148
 20
55.243403052172482
 30
0.0
 10
363.0578506768955
 20
53.581980687685288
 30
0.0
 10
362.36424802316122
 20
49.651619509606391
 30
0.0
 10
362.46239163354926
 20
47.463116496200918
 30
0.0
 10
362.98197426314806
 20
45.31248072292793
 30
0.0
  0
LINE
  5
10A
100
AcDbEntity
  8
HEADREST
370
         0
390
0
  6
HIDDEN2
 62
         7
100
AcDbLine
 10
54.5038252457
 20
49.1937258541
 30
0.0
 11
54.5038252457
 21
60.3124807229
 31
0.0
  0
LINE
  5
10B
100
AcDbEntity
  8
HEADREST
370
         0
390
0
  6
CONTINUOUS
 62
         7
100
AcDbLine
 10
54.5038252457
 20
60.3124807229
 30
0.0
 11
54.5038252457
 21
67.8242038191
 31
0.0
  0
LINE
  5
10C
100
AcDbEntity
  8
HEADREST
370
         0
390
0
  6
CONTINUOUS
 62
         7
100
AcDbLine
 10
22.5038252457
 20
72.7662367257
 30
0.0
 11
22.5038252457
 21
67.8242038191
 31
0.0
  0
LINE
  5
10D
100
AcDbEntity
  8
HEADREST
370
         0
390
0
  6
CONTINUOUS
 62
         7
100
AcDbLine
 10
371.7039921599
 20
60.3124807229
 30
0.0
 11
45.3062942792
 21
60.3124807229
 31
0.0
  0
LINE
  5
10E
100
AcDbEntity
  8
HEADREST
370
         0
390
0
  6
HIDDEN2
 62
         7
100
AcDbLine
 10
51.3038252457
 20
22.8007576267
 30
0.0
 11
51.3038252457
 21
41.4305653633
 31
0.0
  0
SPLINE
  5
10F
100
AcDbEntity
  8
HEADREST
370
         0
390
0
  6
CONTINUOUS
 62
         7
100
AcDbSpline
210
0.0
220
0.0
230
1.0
 70
         8
 71
         3
 72
        10
 73
         6
 74
         0
 42
0.0
 43
0.0
 40
0.0
 40
0.0
 40
0.0
 40
0.0
 40
0.125
 40
0.125
 40
0.2082883080494488
 40
0.2082883080494488
 40
0.2082883080494488
 40
0.2082883080494488
 10
378.50382524573854
 20
30.924539448788082
 30
0.0
 10
376.67827324901594
 20
30.924539448788074
 30
0.0
 10
374.97489381134039
 20
31.129290114390241
 30
0.0
 10
372.50375206593253
 20
31.79991595238122
 30
0.0
 10
371.59844313847123
 20
32.155853238458363
 30
0.0
 10
370.76923656293263
 20
32.613058755294261
 30
0.0
  0
SPLINE
  5
110
100
AcDbEntity
  8
HEADREST
370
         0
390
0
  6
HIDDEN2
 62
         7
100
AcDbSpline
210
0.0
220
0.0
230
1.0
 70
         8
 71
         3
 72
        20
 73
        16
 74
         0
 42
0.0
 43
0.0
 40
0.2082883080494488
 40
0.2082883080494488
 40
0.2082883080494488
 40
0.2082883080494488
 40
0.25
 40
0.25
 40
0.375
 40
0.375
 40
0.5
 40
0.5
 40
0.625
 40
0.625
 40
0.75
 40
0.75
 40
0.875
 40
0.875
 40
1.0
 40
1.0
 40
1.0
 40
1.0
 10
370.76923656293263
 20
32.613058755294261
 30
0.0
 10
370.3539608771581
 20
32.842032258574321
 30
0.0
 10
369.95777254028775
 20
33.096405003856361
 30
0.0
 10
368.44721365705169
 20
34.221361502631815
 30
0.0
 10
367.48719955666962
 20
35.306306424164021
 30
0.0
 10
366.09810570861731
 20
38.049002782623937
 30
0.0
 10
365.70646973391672
 20
39.684419496010968
 30
0.0
 10
365.70120842986972
 20
43.139618594787983
 30
0.0
 10
366.09130073618553
 20
44.961414503459082
 30
0.0
 10
367.47013530713167
 20
48.296546105876843
 30
0.0
 10
368.43704499388997
 20
49.805108729988667
 30
0.0
 10
370.69120282457527
 20
52.36899842568274
 30
0.0
 10
372.00060333742499
 20
53.461426768739592
 30
0.0
 10
374.95571804264603
 20
55.093504148967909
 30
0.0
 10
376.67867090300979
 20
55.652240601788222
 30
0.0
 10
378.50382524573854
 20
55.652240601788236
 30
0.0
  0
LINE
  5
111
100
AcDbEntity
  8
HEADREST
370
         0
390
0
  6
CONTINUOUS
 62
         7
100
AcDbLine
 10
54.5038252457
 20
22.8007576267
 30
0.0
 11
54.5038252457
 21
41.430400822
 31
0.0
  0
ARC
  5
112
100
AcDbEntity
  8
HEADREST
370
         0
390
0
  6
CONTINUOUS
 62
         7
100
AcDbCircle
 10
378.5038252457
 20
72.7662367257
 30
0.0
 40
16.0
100
AcDbArc
 50
0.0
 51
180.0
  0
ARC
  5
113
100
AcDbEntity
  8
HEADREST
370
         0
390
0
  6
HIDDEN2
 62
         7
100
AcDbCircle
 10
378.5038252457
 20
72.7662367257
 30
0.0
 40
16.0
100
AcDbArc
 50
180.0
 51
360.0
  0
LINE
  5
114
100
AcDbEntity
  8
HEADREST
370
         0
390
0
  6
HIDDEN2
 62
         7
100
AcDbLine
 10
45.3007288444
 20
30.3124807229
 30
0.0
 11
54.5038252457
 21
30.3124807229
 31
0.0
  0
LINE
  5
115
100
AcDbEntity
  8
HEADREST
370
         0
390
0
  6
CONTINUOUS
 62
         7
100
AcDbLine
 10
54.5038252457
 20
30.3124807229
 30
0.0
 11
362.5038252457
 21
30.3124807229
 31
0.0
  0
LINE
  5
116
100
AcDbEntity
  8
HEADREST
370
         0
390
0
  6
HIDDEN2
 62
         7
100
AcDbLine
 10
362.5038252457
 20
30.3124807229
 30
0.0
 11
371.7037706538
 21
30.3124807229
 31
0.0
  0
LINE
  5
117
100
AcDbEntity
  8
HEADREST
370
         0
390
0
  6
HIDDEN2
 62
         7
100
AcDbLine
 10
25.7038252457
 20
67.8242038191
 30
0.0
 11
25.7038252457
 21
22.8007576267
 31
0.0
  0
LINE
  5
118
100
AcDbEntity
  8
HEADREST
370
         0
390
0
  6
HIDDEN2
 62
         7
100
AcDbLine
 10
391.3038252457
 20
22.8007576267
 30
0.0
 11
391.3038252457
 21
67.8242038191
 31
0.0
  0
ELLIPSE
  5
119
100
AcDbEntity
  8
HEADREST
370
         0
390
0
  6
CONTINUOUS
 62
         7
100
AcDbEllipse
 10
378.5038252457
 20
22.8007576267
 30
0.0
 11
-15.999999999999986
 21
-0.0000000000000416
 31
0.0
210
0.0
220
0.0
230
1.0
 40
0.9659258263
 41
0.0
 42
6.2831853071795862
  0
LINE
  5
11A
100
AcDbEntity
  8
HEADREST
370
         0
390
0
  6
CONTINUOUS
 62
         7
100
AcDbLine
 10
22.5038252457
 20
67.8242038191
 30
0.0
 11
22.5038252457
 21
22.8007576267
 31
0.0
  0
LINE
  5
11B
100
AcDbEntity
  8
HEADREST
370
         0
390
0
  6
CONTINUOUS
 62
         7
100
AcDbLine
 10
362.5038252457
 20
72.7662367257
 30
0.0
 11
362.5038252457
 21
67.8242038191
 31
0.0
  0
LINE
  5
11C
100
AcDbEntity
  8
HEADREST
370
         0
390
0
  6
CONTINUOUS
 62
         7
100
AcDbLine
 10
378.5038252457
 20
30.9245394488
 30
0.0
 11
378.5038252457
 21
35.1646082032
 31
0.0
  0
LINE
  5
11D
100
AcDbEntity
  8
HEADREST
370
         0
390
0
  6
HIDDEN2
 62
         7
100
AcDbLine
 10
378.5038252457
 20
35.1646082032
 30
0.0
 11
378.5038252457
 21
55.6522406018
 31
0.0
  0
SPLINE
  5
11E
100
AcDbEntity
  8
HEADREST
370
         0
390
0
  6
HIDDEN2
 62
         7
100
AcDbSpline
210
0.0
220
0.0
230
1.0
 70
         8
 71
         3
 72
        22
 73
        18
 74
         0
 42
0.0
 43
0.0
 40
0.0
 40
0.0
 40
0.0
 40
0.0
 40
0.125
 40
0.125
 40
0.25
 40
0.25
 40
0.375
 40
0.375
 40
0.5
 40
0.5
 40
0.625
 40
0.625
 40
0.75
 40
0.75
 40
0.875
 40
0.875
 40
1.0
 40
1.0
 40
1.0
 40
1.0
 10
378.50382524573854
 20
59.700421997067771
 30
0.0
 10
376.67827324901594
 20
59.700421997067771
 30
0.0
 10
374.97489381134045
 20
59.495671331465601
 30
0.0
 10
372.00888269848764
 20
58.690746364395736
 30
0.0
 10
370.71244002714343
 20
58.090578951134795
 30
0.0
 10
368.44721365705169
 20
56.403599943224037
 30
0.0
 10
367.48719955666962
 20
55.318655021691846
 30
0.0
 10
366.09810570861731
 20
52.575958663231944
 30
0.0
 10
365.70646973391672
 20
50.940541949844899
 30
0.0
 10
365.70120842986978
 20
47.485342851067891
 30
0.0
 10
366.09130073618553
 20
45.663546942396799
 30
0.0
 10
367.47013530713167
 20
42.328415339979017
 30
0.0
 10
368.43704499388997
 20
40.819852715867199
 30
0.0
 10
370.69120282457527
 20
38.25596302017312
 30
0.0
 10
372.00060333742499
 20
37.163534677116274
 30
0.0
 10
374.95571804264603
 20
35.53145729688795
 30
0.0
 10
376.67867090300967
 20
34.972720844067631
 30
0.0
 10
378.50382524573854
 20
34.972720844067631
 30
0.0
  0
LINE
  5
11F
100
AcDbEntity
  8
HEADREST
370
         0
390
0
  6
HIDDEN2
 62
         7
100
AcDbLine
 10
378.5038252457
 20
55.6522406018
 30
0.0
 11
378.5038252457
 21
59.7004219971
 31
0.0
  0
LINE
  5
120
100
AcDbEntity
  8
HEADREST
370
         0
390
0
  6
HIDDEN2
 62
         7
100
AcDbLine
 10
365.7038252457
 20
41.4305653633
 30
0.0
 11
365.7038252457
 21
22.8007576267
 31
0.0
  0
LINE
  5
121
100
AcDbEntity
  8
HEADREST
370
         0
390
0
  6
CONTINUOUS
 62
         7
100
AcDbLine
 10
394.5038252457
 20
67.8242038191
 30
0.0
 11
394.5038252457
 21
72.7662367257
 31
0.0
  0
LINE
  5
122
100
AcDbEntity
  8
HEADREST
370
         0
390
0
  6
HIDDEN2
 62
         7
100
AcDbLine
 10
365.7038252457
 20
67.8242038191
 30
0.0
 11
365.7038252457
 21
49.1943960826
 31
0.0
  0
LINE
  5
123
100
AcDbEntity
  8
HEADREST
370
         0
390
0
  6
HIDDEN2
 62
         7
100
AcDbLine
 10
51.3038252457
 20
67.8242038191
 30
0.0
 11
51.3038252457
 21
72.7662367257
 31
0.0
  0
LINE
  5
124
100
AcDbEntity
  8
HEADREST
370
         0
390
0
  6
HIDDEN2
 62
         7
100
AcDbLine
 10
365.7038252457
 20
72.7662367257
 30
0.0
 11
365.7038252457
 21
67.8242038191
 31
0.0
  0
LINE
  5
125
100
AcDbEntity
  8
HEADREST
370
         0
390
0
  6
HIDDEN2
 62
         7
100
AcDbLine
 10
25.7038252457
 20
72.7662367257
 30
0.0
 11
25.7038252457
 21
67.8242038191
 31
0.0
  0
LINE
  5
126
100
AcDbEntity
  8
HEADREST
370
         0
390
0
  6
CONTINUOUS
 62
         7
100
AcDbLine
 10
394.5038252457
 20
22.8007576267
 30
0.0
 11
394.5038252457
 21
67.8242038191
 31
0.0
  0
CIRCLE
  5
127
100
AcDbEntity
  8
HEADREST
370
         0
390
0
  6
HIDDEN2
 62
         7
100
AcDbCircle
 10
378.5038252457
 20
72.7662367257
 30
0.0
 40
12.8
  0
LINE
  5
128
100
AcDbEntity
  8
HEADREST
370
         0
390
0
  6
HIDDEN2
 62
         7
100
AcDbLine
 10
391.3038252457
 20
67.8242038191
 30
0.0
 11
391.3038252457
 21
72.7662367257
 31
0.0
  0
ELLIPSE
  5
129
100
AcDbEntity
  8
HEADREST
370
         0
390
0
  6
CONTINUOUS
 62
         7
100
AcDbEllipse
 10
378.5038252457
 20
22.8007576267
 30
0.0
 11
-12.800000000000006
 21
-0.0000000000000971
 31
0.0
210
0.0
220
0.0
230
1.0
 40
0.9659258263
 41
0.0
 42
6.2831853071795862
  0
LINE
  5
12A
100
AcDbEntity
  8
HEADREST
370
         0
390
0
  6
CONTINUOUS
 62
         7
100
AcDbLine
 10
362.5038252457
 20
41.4313875037
 30
0.0
 11
362.5038252457
 21
22.8007576267
 31
0.0
  0
CIRCLE
  5
12B
100
AcDbEntity
  8
HEADREST
370
         0
390
0
  6
HIDDEN2
 62
         7
100
AcDbCircle
 10
38.5038252457
 20
72.7662367257
 30
0.0
 40
12.8
  0
ELLIPSE
  5
12C
100
AcDbEntity
  8
HEADREST
370
         0
390
0
  6
CONTINUOUS
 62
         7
100
AcDbEllipse
 10
38.5038252457
 20
22.8007576267
 30
0.0
 11
-12.800000000000006
 21
0.0000000000000971
 31
0.0
210
0.0
220
0.0
230
1.0
 40
0.9659258263
 41
0.0
 42
6.2831853071795862
  0
LINE
  5
12D
100
AcDbEntity
  8
HEADREST
370
         0
390
0
  6
CONTINUOUS
 62
         7
100
AcDbLine
 10
362.5038252457
 20
67.8242038191
 30
0.0
 11
362.5038252457
 21
60.3124807229
 31
0.0
  0
LINE
  5
12E
100
AcDbEntity
  8
HEADREST
370
         0
390
0
  6
HIDDEN2
 62
         7
100
AcDbLine
 10
362.5038252457
 20
60.3124807229
 30
0.0
 11
362.5038252457
 21
49.1929820889
 31
0.0
  0
ELLIPSE
  5
12F
100
AcDbEntity
  8
HEADREST
370
         0
390
0
  6
CONTINUOUS
 62
         7
100
AcDbEllipse
 10
38.5038252457
 20
22.8007576267
 30
0.0
 11
-16.000000000000014
 21
0.0000000000003469
 31
0.0
210
0.0
220
0.0
230
1.0
 40
0.9659258263
 41
0.0
 42
6.2831853071795862
  0
ARC
  5
130
100
AcDbEntity
  8
HEADREST
370
         0
390
0
  6
CONTINUOUS
 62
         7
100
AcDbCircle
 10
38.5038252457
 20
72.7662367257
 30
0.0
 40
16.0
100
AcDbArc
 50
0.0
 51
180.0
  0
ARC
  5
131
100
AcDbEntity
  8
HEADREST
370
         0
390
0
  6
HIDDEN2
 62
         7
100
AcDbCircle
 10
38.5038252457
 20
72.7662367257
 30
0.0
 40
16.0
100
AcDbArc
 50
180.0
 51
360.0
  0
ENDBLK
  5
132
100
AcDbEntity
  8
HEADREST
370
         0
390
0
  6
HIDDEN2
 62
         7
100
AcDbBlockEnd
  0
BLOCK
  5
135
100
AcDbEntity
  8
DEFAULT
370
         0
390
0
 62
         1
 48
0.0
100
AcDbBlockBegin
  2
SE6
 70
         0
 10
0.0
 20
0.0
 30
0.0
  3
SE6
  1

  0
LINE
  5
136
100
AcDbEntity
  8
DEFAULT
370
         0
390
0
  6
CONTINUOUS
 62
       136
100
AcDbLine
 10
363.7643710978
 20
395.5803023722
 30
0.0
 11
218.6067020095
 21
343.8150274862
 31
0.0
  0
HATCH
  5
137
100
AcDbEntity
  8
DEFAULT
390
0
  6
CONTINUOUS
 62
       136
100
AcDbHatch
 10
0.0
 20
0.0
 30
0.0
210
0.0
220
0.0
230
1.0
  2
SOLID
 70
         1
 71
         1
 91
        1
 92
        1
 93
        3
 72
         1
 10
359.4708350601415
 20
393.429850899938
 11
362.5715450165863
 21
395.15492374507312
 72
         1
 10
362.5715450165863
 20
395.15492374507312
 11
359.07895791882447
 21
394.5287337423058
 72
         1
 10
359.07895791882441
 20
394.5287337423058
 11
359.4708350601415
 21
393.429850899938
 97
        0
 75
         0
 76
         1
 98
        1
 10
0.0
 20
0.0
  0
TEXT
  5
138
100
AcDbEntity
  8
DEFAULT
370
         0
390
0
  6
CONTINUOUS
 62
       136
100
AcDbText
 10
219.4666226385
 20
345.0506611228
 30
0.0
 40
3.5
  1
R
 50
19.6269522841
  7
seiso_ttf
 11
218.2909912508
 21
348.3473095482
 31
0.0
100
AcDbText
 73
         3
  0
TEXT
  5
139
100
AcDbEntity
  8
DEFAULT
370
         0
390
0
  6
CONTINUOUS
 62
       136
100
AcDbText
 10
223.3926312178
 20
346.4507312299
 30
0.0
 40
3.5
  1
0,63
 50
19.6269522841
  7
seiso_ttf
 11
222.2169998301
 21
349.7473796553
 31
0.0
100
AcDbText
 73
         3
  0
ENDBLK
  5
13A
100
AcDbEntity
  8
DEFAULT
370
         0
390
0
  6
CONTINUOUS
 62
       136
100
AcDbBlockEnd
  0
BLOCK
  5
13B
100
AcDbEntity
  8
DEFAULT
370
         0
390
0
 62
         1
 48
0.0
100
AcDbBlockBegin
  2
SE7
 70
         0
 10
0.0
 20
0.0
 30
0.0
  3
SE7
  1

  0
LINE
  5
13C
100
AcDbEntity
  8
DEFAULT
370
         0
390
0
  6
CONTINUOUS
 62
       136
100
AcDbLine
 10
50.4058496144
 20
395.5404953399
 30
0.0
 11
123.5984538274
 21
382.0687420778
 31
0.0
  0
HATCH
  5
13D
100
AcDbEntity
  8
DEFAULT
390
0
  6
CONTINUOUS
 62
       136
100
AcDbHatch
 10
0.0
 20
0.0
 30
0.0
210
0.0
220
0.0
230
1.0
  2
SOLID
 70
         1
 71
         1
 91
        1
 92
        1
 93
        3
 72
         1
 10
54.837099087134931
 20
395.31801629978662
 11
51.289325918201676
 21
395.37788362656437
 72
         1
 10
51.289325918201676
 20
395.37788362656437
 11
54.625911134183589
 21
394.17062323563403
 72
         1
 10
54.625911134183589
 20
394.17062323563408
 11
54.837099087134931
 21
395.31801629978668
 97
        0
 75
         0
 76
         1
 98
        1
 10
0.0
 20
0.0
  0
TEXT
  5
13E
100
AcDbEntity
  8
DEFAULT
370
         0
390
0
  6
CONTINUOUS
 62
       136
100
AcDbText
 10
111.8030933443
 20
385.1294816877
 30
0.0
 40
3.5
  1
R
 50
349.5709249963
  7
seiso_ttf
 11
112.4366571836
 21
388.571660774
 31
0.0
100
AcDbText
 73
         3
  0
TEXT
  5
13F
100
AcDbEntity
  8
DEFAULT
370
         0
390
0
  6
CONTINUOUS
 62
       136
100
AcDbText
 10
115.9024157106
 20
384.3749647519
 30
0.0
 40
3.5
  1
0,45
 50
349.5709249963
  7
seiso_ttf
 11
116.5359795499
 21
387.8171438381
 31
0.0
100
AcDbText
 73
         3
  0
ENDBLK
  5
140
100
AcDbEntity
  8
DEFAULT
370
         0
390
0
  6
CONTINUOUS
 62
       136
100
AcDbBlockEnd
  0
BLOCK
  5
141
100
AcDbEntity
  8
DEFAULT
370
         0
390
0
 62
         1
 48
0.0
100
AcDbBlockBegin
  2
SE8
 70
         0
 10
0.0
 20
0.0
 30
0.0
  3
SE8
  1

  0
HATCH
  5
142
100
AcDbEntity
  8
DEFAULT
390
0
  6
CONTINUOUS
 62
       136
100
AcDbHatch
 10
0.0
 20
0.0
 30
0.0
210
0.0
220
0.0
230
1.0
  2
SOLID
 70
         1
 71
         1
 91
        1
 92
        1
 93
        3
 72
         1
 10
57.521724345349661
 20
254.16126371854125
 11
54.021724237316242
 21
254.74459706988017
 72
         1
 10
54.021724237316242
 20
254.74459706988017
 11
57.521724345349661
 21
255.32793042121909
 72
         1
 10
57.521724345349661
 20
255.32793042121909
 11
57.521724345349661
 21
254.16126371854125
 97
        0
 75
         0
 76
         1
 98
        1
 10
0.0
 20
0.0
  0
HATCH
  5
143
100
AcDbEntity
  8
DEFAULT
390
0
  6
CONTINUOUS
 62
       136
100
AcDbHatch
 10
0.0
 20
0.0
 30
0.0
210
0.0
220
0.0
230
1.0
  2
SOLID
 70
         1
 71
         1
 91
        1
 92
        1
 93
        3
 72
         1
 10
205.00382513770515
 20
254.16126371854125
 11
208.50382524573857
 21
254.74459706988017
 72
         1
 10
208.50382524573857
 20
254.74459706988017
 11
205.00382513770515
 21
255.32793042121909
 72
         1
 10
205.00382513770515
 20
255.32793042121909
 11
205.00382513770515
 21
254.16126371854125
 97
        0
 75
         0
 76
         1
 98
        1
 10
0.0
 20
0.0
  0
LINE
  5
144
100
AcDbEntity
  8
DEFAULT
370
         0
390
0
  6
CONTINUOUS
 62
       136
100
AcDbLine
 10
54.0217242373
 20
326.5206295177
 30
0.0
 11
54.0217242373
 21
252.9945970159
 31
0.0
  0
LINE
  5
145
100
AcDbEntity
  8
DEFAULT
370
         0
390
0
  6
CONTINUOUS
 62
       136
100
AcDbLine
 10
208.5038252457
 20
296.5206295177
 30
0.0
 11
208.5038252457
 21
252.9945970159
 31
0.0
  0
LINE
  5
146
100
AcDbEntity
  8
DEFAULT
370
         0
390
0
  6
CONTINUOUS
 62
       136
100
AcDbLine
 10
54.0217242373
 20
254.7445970699
 30
0.0
 11
208.503820671
 21
254.7445970699
 31
0.0
  0
TEXT
  5
147
100
AcDbEntity
  8
DEFAULT
370
         0
390
0
  6
CONTINUOUS
 62
       136
100
AcDbText
 10
126.6093633632
 20
255.6195970699
 30
0.0
 40
3.5
  1
77,24
  7
seiso_ttf
 11
126.6093633632
 21
259.1195970699
 31
0.0
100
AcDbText
 73
         3
  0
ENDBLK
  5
148
100
AcDbEntity
  8
DEFAULT
370
         0
390
0
  6
CONTINUOUS
 62
       136
100
AcDbBlockEnd
  0
BLOCK
  5
149
100
AcDbEntity
  8
DEFAULT
370
         0
390
0
 62
         1
 48
0.0
100
AcDbBlockBegin
  2
SE9
 70
         0
 10
0.0
 20
0.0
 30
0.0
  3
SE9
  1

  0
HATCH
  5
14A
100
AcDbEntity
  8
DEFAULT
390
0
  6
CONTINUOUS
 62
       136
100
AcDbHatch
 10
0.0
 20
0.0
 30
0.0
210
0.0
220
0.0
230
1.0
  2
SOLID
 70
         1
 71
         1
 91
        1
 92
        1
 93
        3
 72
         1
 10
514.51747020442087
 20
210.94146118894295
 11
513.04814676920694
 21
207.71169847354892
 72
         1
 10
513.04814676920694
 20
207.71169847354892
 11
513.39055670563289
 21
211.24341675088289
 72
         1
 10
513.39055670563289
 20
211.24341675088291
 11
514.51747020442076
 21
210.94146118894295
 97
        0
 75
         0
 76
         1
 98
        1
 10
0.0
 20
0.0
  0
HATCH
  5
14B
100
AcDbEntity
  8
DEFAULT
390
0
  6
CONTINUOUS
 62
       136
100
AcDbHatch
 10
0.0
 20
0.0
 30
0.0
210
0.0
220
0.0
230
1.0
  2
SOLID
 70
         1
 71
         1
 91
        1
 92
        1
 93
        3
 72
         1
 10
557.72918302521748
 20
372.2097689182313
 11
558.07159296164343
 21
375.7414871955653
 72
         1
 10
558.07159296164343
 20
375.74148719556536
 11
556.6022695264295
 21
372.51172448017138
 72
         1
 10
556.6022695264295
 20
372.51172448017132
 11
557.72918302521737
 21
372.2097689182313
 97
        0
 75
         0
 76
         1
 98
        1
 10
0.0
 20
0.0
  0
LINE
  5
14C
100
AcDbEntity
  8
DEFAULT
370
         0
390
0
  6
CONTINUOUS
 62
       136
100
AcDbLine
 10
454.6306094015
 20
223.364630435
 30
0.0
 11
514.7385170174
 21
207.2587651306
 31
0.0
  0
LINE
  5
14D
100
AcDbEntity
  8
DEFAULT
370
         0
390
0
  6
CONTINUOUS
 62
       136
100
AcDbLine
 10
499.6540555939
 20
391.3944191571
 30
0.0
 11
559.7619632098
 21
375.2885538527
 31
0.0
  0
LINE
  5
14E
100
AcDbEntity
  8
DEFAULT
370
         0
390
0
  6
CONTINUOUS
 62
       136
100
AcDbLine
 10
513.0481467692
 20
207.7116984735
 30
0.0
 11
558.0715944365
 21
375.7414926999
 31
0.0
  0
TEXT
  5
14F
100
AcDbEntity
  8
DEFAULT
370
         0
390
0
  6
CONTINUOUS
 62
       136
100
AcDbText
 10
533.5000006682
 20
287.4197967255
 30
0.0
 40
3.5
  1
86,98
 50
75.0
  7
seiso_ttf
 11
530.1192602762
 21
288.3256633834
 31
0.0
100
AcDbText
 73
         3
  0
ENDBLK
  5
150
100
AcDbEntity
  8
DEFAULT
370
         0
390
0
  6
CONTINUOUS
 62
       136
100
AcDbBlockEnd
  0
BLOCK
  5
151
100
AcDbEntity
  8
DEFAULT
370
         0
390
0
 62
         1
 48
0.0
100
AcDbBlockBegin
  2
SE10
 70
         0
 10
0.0
 20
0.0
 30
0.0
  3
SE10
  1

  0
HATCH
  5
152
100
AcDbEntity
  8
DEFAULT
390
0
  6
CONTINUOUS
 62
       136
100
AcDbHatch
 10
0.0
 20
0.0
 30
0.0
210
0.0
220
0.0
230
1.0
  2
SOLID
 70
         1
 71
         1
 91
        1
 92
        1
 93
        3
 72
         1
 10
532.69799390917376
 20
86.156405363710718
 11
532.1146605578349
 21
82.656405255677299
 72
         1
 10
532.1146605578349
 20
82.656405255677299
 11
531.53132720649603
 21
86.156405363710718
 72
         1
 10
531.53132720649603
 20
86.156405363710718
 11
532.69799390917376
 21
86.156405363710718
 97
        0
 75
         0
 76
         1
 98
        1
 10
0.0
 20
0.0
  0
HATCH
  5
153
100
AcDbEntity
  8
DEFAULT
390
0
  6
CONTINUOUS
 62
       136
100
AcDbHatch
 10
0.0
 20
0.0
 30
0.0
210
0.0
220
0.0
230
1.0
  2
SOLID
 70
         1
 71
         1
 91
        1
 92
        1
 93
        3
 72
         1
 10
532.69799390917376
 20
186.4672682733285
 11
532.1146605578349
 21
189.96726838136192
 72
         1
 10
532.1146605578349
 20
189.96726838136192
 11
531.53132720649603
 21
186.4672682733285
 72
         1
 10
531.53132720649603
 20
186.4672682733285
 11
532.69799390917376
 21
186.4672682733285
 97
        0
 75
         0
 76
         1
 98
        1
 10
0.0
 20
0.0
  0
LINE
  5
154
100
AcDbEntity
  8
DEFAULT
370
         0
390
0
  6
CONTINUOUS
 62
       136
100
AcDbLine
 10
450.2337632743
 20
82.6564052557
 30
0.0
 11
533.8646606119
 21
82.6564052557
 31
0.0
  0
LINE
  5
155
100
AcDbEntity
  8
DEFAULT
370
         0
390
0
  6
CONTINUOUS
 62
       136
100
AcDbLine
 10
450.2337632743
 20
189.9672683814
 30
0.0
 11
533.8646606119
 21
189.9672683814
 31
0.0
  0
LINE
  5
156
100
AcDbEntity
  8
DEFAULT
370
         0
390
0
  6
CONTINUOUS
 62
       136
100
AcDbLine
 10
532.1146605578
 20
82.6564052557
 30
0.0
 11
532.1146605578
 21
189.9672666048
 31
0.0
  0
TEXT
  5
157
100
AcDbEntity
  8
DEFAULT
370
         0
390
0
  6
CONTINUOUS
 62
       136
100
AcDbText
 10
531.2396605578
 20
131.9368359302
 30
0.0
 40
3.5
  1
53,66
 50
90.0
  7
seiso_ttf
 11
527.7396605578
 21
131.9368359302
 31
0.0
100
AcDbText
 73
         3
  0
ENDBLK
  5
158
100
AcDbEntity
  8
DEFAULT
370
         0
390
0
  6
CONTINUOUS
 62
       136
100
AcDbBlockEnd
  0
BLOCK
  5
159
100
AcDbEntity
  8
DEFAULT
370
         0
390
0
 62
         1
 48
0.0
100
AcDbBlockBegin
  2
SE11
 70
         0
 10
0.0
 20
0.0
 30
0.0
  3
SE11
  1

  0
LINE
  5
15A
100
AcDbEntity
  8
DEFAULT
370
         0
390
0
  6
CONTINUOUS
 62
       136
100
AcDbLine
 10
579.2712614246
 20
189.9672683814
 30
0.0
 11
451.238049906
 21
206.0350313502
 31
0.0
  0
HATCH
  5
15B
100
AcDbEntity
  8
DEFAULT
390
0
  6
CONTINUOUS
 62
       136
100
AcDbHatch
 10
0.0
 20
0.0
 30
0.0
210
0.0
220
0.0
230
1.0
  2
SOLID
 70
         1
 71
         1
 91
        1
 92
        1
 93
        3
 72
         1
 10
454.63817434761967
 20
205.02041749301117
 11
451.23805117357108
 21
206.03503119108345
 72
         1
 10
451.23805117357108
 20
206.03503119108348
 11
454.78344780785676
 21
206.17800412773354
 72
         1
 10
454.78344780785676
 20
206.17800412773354
 11
454.63817434761967
 21
205.02041749301117
 97
        0
 75
         0
 76
         1
 98
        1
 10
0.0
 20
0.0
  0
TEXT
  5
15C
100
AcDbEntity
  8
DEFAULT
370
         0
390
0
  6
CONTINUOUS
 62
       136
100
AcDbText
 10
508.836400866
 20
199.6884840053
 30
0.0
 40
3.5
  1
R
 50
352.8469567001
  7
seiso_ttf
 11
509.2722212333
 21
203.1612438023
 31
0.0
100
AcDbText
 73
         3
  0
TEXT
  5
15D
100
AcDbEntity
  8
DEFAULT
370
         0
390
0
  6
CONTINUOUS
 62
       136
100
AcDbText
 10
512.9721420788
 20
199.1694615679
 30
0.0
 40
3.5
  1
64,52
 50
352.8469567001
  7
seiso_ttf
 11
513.407962446
 21
202.6422213649
 31
0.0
100
AcDbText
 73
         3
  0
ENDBLK
  5
15E
100
AcDbEntity
  8
DEFAULT
370
         0
390
0
  6
CONTINUOUS
 62
       136
100
AcDbBlockEnd
  0
BLOCK
  5
15F
100
AcDbEntity
  8
DEFAULT
370
         0
390
0
 62
         1
 48
0.0
100
AcDbBlockBegin
  2
SE12
 70
         0
 10
0.0
 20
0.0
 30
0.0
  3
SE12
  1

  0
TEXT
  5
160
100
AcDbEntity
  8
0
370
         0
390
0
  6
CONTINUOUS
 62
       136
100
AcDbText
 10
464.874
 20
50.7035
 30
0.0
 40
3.048
  1
DELL
  7
seiso_ttf
 11
464.874
 21
53.7515
 31
0.0
100
AcDbText
 73
         3
  0
ENDBLK
  5
161
100
AcDbEntity
  8
0
370
         0
390
0
  6
CONTINUOUS
 62
       136
100
AcDbBlockEnd
  0
BLOCK
  5
162
100
AcDbEntity
  8
DEFAULT
370
         0
390
0
 62
         1
 48
0.0
100
AcDbBlockBegin
  2
SE13
 70
         0
 10
0.0
 20
0.0
 30
0.0
  3
SE13
  1

  0
TEXT
  5
163
100
AcDbEntity
  8
0
370
         0
390
0
  6
CONTINUOUS
 62
       136
100
AcDbText
 10
483.924
 20
50.7035
 30
0.0
 40
3.048
  1
07/10/19
  7
seiso_ttf
 11
483.924
 21
53.7515
 31
0.0
100
AcDbText
 73
         3
  0
ENDBLK
  5
164
100
AcDbEntity
  8
0
370
         0
390
0
  6
CONTINUOUS
 62
       136
100
AcDbBlockEnd
  0
BLOCK
  5
165
100
AcDbEntity
  8
DEFAULT
370
         0
390
0
 62
         1
 48
0.0
100
AcDbBlockBegin
  2
SE14
 70
         0
 10
0.0
 20
0.0
 30
0.0
  3
SE14
  1

  0
TEXT
  5
166
100
AcDbEntity
  8
0
370
         0
390
0
  6
CONTINUOUS
 62
       136
100
AcDbText
 10
506.149
 20
18.001
 30
0.0
 40
3.048
  1
FILE NAME: headrest.dft
  7
seiso_ttf
 11
506.149
 21
21.049
 31
0.0
100
AcDbText
 73
         3
  0
ENDBLK
  5
167
100
AcDbEntity
  8
0
370
         0
390
0
  6
CONTINUOUS
 62
       136
100
AcDbBlockEnd
  0
BLOCK
  5
168
100
AcDbEntity
  8
DEFAULT
370
         0
390
0
 62
         1
 48
0.0
100
AcDbBlockBegin
  2
SE15
 70
         0
 10
0.0
 20
0.0
 30
0.0
  3
SE15
  1

  0
TEXT
  5
169
100
AcDbEntity
  8
0
370
         0
390
0
  6
CONTINUOUS
 62
       136
100
AcDbText
 10
553.774
 20
11.651
 30
0.0
 40
3.048
  1
SHEET 1 OF 1
  7
seiso_ttf
 11
553.774
 21
14.699
 31
0.0
100
AcDbText
 73
         3
  0
ENDBLK
  5
16A
100
AcDbEntity
  8
0
370
         0
390
0
  6
CONTINUOUS
 62
       136
100
AcDbBlockEnd
  0
ENDSEC
  0
SECTION
  2
ENTITIES
  0
INSERT
  5
3A
102
{ACAD_XDICTIONARY
360
3B
102
}
100
AcDbEntity
  8
DEFAULT
370
         0
390
0
 62
         0
 48
0.0
100
AcDbBlockReference
  2
SE1
 10
0.0
 20
0.0
 30
0.0
  0
INSERT
  5
3E
100
AcDbEntity
  8
DEFAULT
370
         0
390
0
 62
         0
 48
0.0
100
AcDbBlockReference
  2
SE0
 10
0.0
 20
0.0
 30
0.0
  0
INSERT
  5
41
102
{ACAD_XDICTIONARY
360
42
102
}
100
AcDbEntity
  8
DEFAULT
370
         0
390
0
 62
         0
 48
0.0
100
AcDbBlockReference
  2
SE3
 10
0.0
 20
0.0
 30
0.0
  0
INSERT
  5
45
100
AcDbEntity
  8
DEFAULT
370
         0
390
0
 62
         0
 48
0.0
100
AcDbBlockReference
  2
SE2
 10
0.0
 20
0.0
 30
0.0
  0
INSERT
  5
48
102
{ACAD_XDICTIONARY
360
49
102
}
100
AcDbEntity
  8
DEFAULT
370
         0
390
0
 62
         0
 48
0.0
100
AcDbBlockReference
  2
SE5
 10
0.0
 20
0.0
 30
0.0
  0
INSERT
  5
4C
100
AcDbEntity
  8
DEFAULT
370
         0
390
0
 62
         0
 48
0.0
100
AcDbBlockReference
  2
SE4
 10
0.0
 20
0.0
 30
0.0
  0
INSERT
  5
50
100
AcDbEntity
  8
DEFAULT
370
         0
390
0
 62
         0
 48
0.0
100
AcDbBlockReference
  2
SE6
 10
0.0
 20
0.0
 30
0.0
  0
INSERT
  5
53
100
AcDbEntity
  8
DEFAULT
370
         0
390
0
 62
         0
 48
0.0
100
AcDbBlockReference
  2
SE7
 10
0.0
 20
0.0
 30
0.0
  0
INSERT
  5
57
100
AcDbEntity
  8
DEFAULT
370
         0
390
0
 62
         0
 48
0.0
100
AcDbBlockReference
  2
SE8
 10
0.0
 20
0.0
 30
0.0
  0
INSERT
  5
5B
100
AcDbEntity
  8
DEFAULT
370
         0
390
0
 62
         0
 48
0.0
100
AcDbBlockReference
  2
SE9
 10
0.0
 20
0.0
 30
0.0
  0
INSERT
  5
5F
100
AcDbEntity
  8
DEFAULT
370
         0
390
0
 62
         0
 48
0.0
100
AcDbBlockReference
  2
SE10
 10
0.0
 20
0.0
 30
0.0
  0
INSERT
  5
62
100
AcDbEntity
  8
DEFAULT
370
         0
390
0
 62
         0
 48
0.0
100
AcDbBlockReference
  2
SE11
 10
0.0
 20
0.0
 30
0.0
  0
LINE
  5
63
100
AcDbEntity
  8
DEFAULT
370
         0
390
0
  6
CONTINUOUS
 62
         7
100
AcDbLine
 10
10.0
 20
10.0
 30
0.0
 11
584.0
 21
10.0
 31
0.0
  0
LINE
  5
64
100
AcDbEntity
  8
DEFAULT
370
         0
390
0
  6
CONTINUOUS
 62
         7
100
AcDbLine
 10
584.0
 20
10.0
 30
0.0
 11
584.0
 21
410.0
 31
0.0
  0
LINE
  5
65
100
AcDbEntity
  8
DEFAULT
370
         0
390
0
  6
CONTINUOUS
 62
         7
100
AcDbLine
 10
584.0
 20
410.0
 30
0.0
 11
10.0
 21
410.0
 31
0.0
  0
LINE
  5
66
100
AcDbEntity
  8
DEFAULT
370
         0
390
0
  6
CONTINUOUS
 62
         7
100
AcDbLine
 10
10.0
 20
410.0
 30
0.0
 11
10.0
 21
10.0
 31
0.0
  0
LINE
  5
67
100
AcDbEntity
  8
DEFAULT
370
         0
390
0
  6
CONTINUOUS
 62
         7
100
AcDbLine
 10
441.125
 20
10.0
 30
0.0
 11
441.125
 21
60.8
 31
0.0
  0
LINE
  5
68
100
AcDbEntity
  8
DEFAULT
370
         0
390
0
  6
CONTINUOUS
 62
         7
100
AcDbLine
 10
463.35
 20
32.225
 30
0.0
 11
463.35
 21
60.8
 31
0.0
  0
LINE
  5
69
100
AcDbEntity
  8
DEFAULT
370
         0
390
0
  6
CONTINUOUS
 62
         7
100
AcDbLine
 10
482.4
 20
32.225
 30
0.0
 11
482.4
 21
60.8
 31
0.0
  0
LINE
  5
6A
100
AcDbEntity
  8
DEFAULT
370
         0
390
0
  6
CONTINUOUS
 62
         7
100
AcDbLine
 10
504.625
 20
10.0
 30
0.0
 11
504.625
 21
60.8
 31
0.0
  0
LINE
  5
6B
100
AcDbEntity
  8
DEFAULT
370
         0
390
0
  6
CONTINUOUS
 62
         7
100
AcDbLine
 10
514.15
 20
22.7
 30
0.0
 11
514.15
 21
32.098
 31
0.0
  0
LINE
  5
6C
100
AcDbEntity
  8
DEFAULT
370
         0
390
0
  6
CONTINUOUS
 62
         7
100
AcDbLine
 10
526.85
 20
10.0
 30
0.0
 11
526.85
 21
16.35
 31
0.0
  0
LINE
  5
6D
100
AcDbEntity
  8
DEFAULT
370
         0
390
0
  6
CONTINUOUS
 62
         7
100
AcDbLine
 10
552.25
 20
10.0
 30
0.0
 11
552.25
 21
16.35
 31
0.0
  0
LINE
  5
6E
100
AcDbEntity
  8
DEFAULT
370
         0
390
0
  6
CONTINUOUS
 62
         7
100
AcDbLine
 10
574.348
 20
22.7
 30
0.0
 11
574.348
 21
32.098
 31
0.0
  0
LINE
  5
6F
100
AcDbEntity
  8
DEFAULT
370
         0
390
0
  6
CONTINUOUS
 62
         7
100
AcDbLine
 10
441.125
 20
60.8
 30
0.0
 11
584.0
 21
60.8
 31
0.0
  0
LINE
  5
70
100
AcDbEntity
  8
DEFAULT
370
         0
390
0
  6
CONTINUOUS
 62
         7
100
AcDbLine
 10
441.125
 20
55.085
 30
0.0
 11
504.625
 21
55.085
 31
0.0
  0
LINE
  5
71
100
AcDbEntity
  8
DEFAULT
370
         0
390
0
  6
CONTINUOUS
 62
         7
100
AcDbLine
 10
441.125
 20
49.37
 30
0.0
 11
504.625
 21
49.37
 31
0.0
  0
LINE
  5
72
100
AcDbEntity
  8
DEFAULT
370
         0
390
0
  6
CONTINUOUS
 62
         7
100
AcDbLine
 10
504.625
 20
45.052
 30
0.0
 11
584.0
 21
45.052
 31
0.0
  0
LINE
  5
73
100
AcDbEntity
  8
DEFAULT
370
         0
390
0
  6
CONTINUOUS
 62
         7
100
AcDbLine
 10
441.125
 20
43.655
 30
0.0
 11
504.625
 21
43.655
 31
0.0
  0
LINE
  5
74
100
AcDbEntity
  8
DEFAULT
370
         0
390
0
  6
CONTINUOUS
 62
         7
100
AcDbLine
 10
441.125
 20
37.94
 30
0.0
 11
504.625
 21
37.94
 31
0.0
  0
LINE
  5
75
100
AcDbEntity
  8
DEFAULT
370
         0
390
0
  6
CONTINUOUS
 62
         7
100
AcDbLine
 10
441.125
 20
32.225
 30
0.0
 11
584.0
 21
32.225
 31
0.0
  0
LINE
  5
76
100
AcDbEntity
  8
DEFAULT
370
         0
390
0
  6
CONTINUOUS
 62
         7
100
AcDbLine
 10
504.625
 20
22.7
 30
0.0
 11
584.0
 21
22.7
 31
0.0
  0
LINE
  5
77
100
AcDbEntity
  8
DEFAULT
370
         0
390
0
  6
CONTINUOUS
 62
         7
100
AcDbLine
 10
504.625
 20
16.35
 30
0.0
 11
584.0
 21
16.35
 31
0.0
  0
TEXT
  5
78
100
AcDbEntity
  8
DEFAULT
370
         0
390
0
  6
CONTINUOUS
 62
         7
100
AcDbText
 10
442.649
 20
50.7727727273
 30
0.0
 40
3.048
  1
DRAWN
  7
seiso_ttf
 11
442.649
 21
53.8207727273
 31
0.0
100
AcDbText
 73
         3
  0
TEXT
  5
79
100
AcDbEntity
  8
DEFAULT
370
         0
390
0
  6
CONTINUOUS
 62
         7
100
AcDbText
 10
442.649
 20
45.0577727273
 30
0.0
 40
3.048
  1
CHECKED
  7
seiso_ttf
 11
442.649
 21
48.1057727273
 31
0.0
100
AcDbText
 73
         3
  0
TEXT
  5
7A
100
AcDbEntity
  8
DEFAULT
370
         0
390
0
  6
CONTINUOUS
 62
         7
100
AcDbText
 10
442.649
 20
39.3427727273
 30
0.0
 40
3.048
  1
ENG APPR
  7
seiso_ttf
 11
442.649
 21
42.3907727273
 31
0.0
100
AcDbText
 73
         3
  0
TEXT
  5
7B
100
AcDbEntity
  8
DEFAULT
370
         0
390
0
  6
CONTINUOUS
 62
         7
100
AcDbText
 10
442.649
 20
33.6277727273
 30
0.0
 40
3.048
  1
MGR APPR
  7
seiso_ttf
 11
442.649
 21
36.6757727273
 31
0.0
100
AcDbText
 73
         3
  0
TEXT
  5
7C
100
AcDbEntity
  8
DEFAULT
370
         0
390
0
  6
CONTINUOUS
 62
         7
100
AcDbText
 10
451.8853636364
 20
27.1392272727
 30
0.0
 40
3.048
  1
UNLESS OTHERWISE SPECIFIED
  7
seiso_ttf
 11
451.8853636364
 21
30.1872272727
 31
0.0
100
AcDbText
 73
         3
  0
TEXT
  5
7D
100
AcDbEntity
  8
DEFAULT
370
         0
390
0
  6
CONTINUOUS
 62
         7
100
AcDbText
 10
449.9110909091
 20
22.1515909091
 30
0.0
 40
3.048
  1
DIMENSIONS ARE IN MILLIMETERS
  7
seiso_ttf
 11
449.9110909091
 21
25.1995909091
 31
0.0
100
AcDbText
 73
         3
  0
TEXT
  5
7E
100
AcDbEntity
  8
DEFAULT
370
         0
390
0
  6
CONTINUOUS
 62
         7
100
AcDbText
 10
463.4192727273
 20
17.1639545455
 30
0.0
 40
3.048
  1
ANGLES X.X
  7
seiso_ttf
 11
463.4192727273
 21
20.2119545455
 31
0.0
100
AcDbText
 73
         3
  0
TEXT
  5
7F
100
AcDbEntity
  8
DEFAULT
370
         0
390
0
  6
CONTINUOUS
 62
         7
100
AcDbText
 10
455.6953636364
 20
12.1763181818
 30
0.0
 40
3.048
  1
2 PL X.XX 3 PL X.XXX
  7
seiso_ttf
 11
455.6953636364
 21
15.2243181818
 31
0.0
100
AcDbText
 73
         3
  0
TEXT
  5
80
100
AcDbEntity
  8
DEFAULT
370
         0
390
0
  6
CONTINUOUS
 62
         7
100
AcDbText
 10
469.0996363636
 20
56.4877727273
 30
0.0
 40
3.048
  1
NAME
  7
seiso_ttf
 11
469.0996363636
 21
59.5357727273
 31
0.0
100
AcDbText
 73
         3
  0
INSERT
  5
82
100
AcDbEntity
  8
DEFAULT
370
         0
390
0
 62
         0
 48
0.0
100
AcDbBlockReference
  2
SE12
 10
0.0
 20
0.0
 30
0.0
  0
TEXT
  5
83
100
AcDbEntity
  8
DEFAULT
370
         0
390
0
  6
CONTINUOUS
 62
         7
100
AcDbText
 10
490.0835
 20
56.4877727273
 30
0.0
 40
3.048
  1
DATE
  7
seiso_ttf
 11
490.0835
 21
59.5357727273
 31
0.0
100
AcDbText
 73
         3
  0
INSERT
  5
85
100
AcDbEntity
  8
DEFAULT
370
         0
390
0
 62
         0
 48
0.0
100
AcDbBlockReference
  2
SE13
 10
0.0
 20
0.0
 30
0.0
  0
TEXT
  5
87
100
AcDbEntity
  8
DEFAULT
370
         0
390
0
  6
CONTINUOUS
 62
         7
100
AcDbText
 10
518.5061
 20
51.9862
 30
0.0
 40
6.096
  1
SOLID EDGE
  7
arial_ttfB
 11
518.5061
 21
58.0822
 31
0.0
100
AcDbText
 73
         3
  0
TEXT
  5
89
100
AcDbEntity
  8
DEFAULT
370
         0
390
0
  6
CONTINUOUS
 62
         7
100
AcDbText
 10
515.6902777778
 20
46.422425303
 30
0.0
 40
3.5
  1
UGS - The PLM Company
  7
arial_ttfI
 11
515.6902777778
 21
49.922425303
 31
0.0
100
AcDbText
 73
         3
  0
TEXT
  5
8A
100
AcDbEntity
  8
DEFAULT
370
         0
390
0
  6
CONTINUOUS
 62
         7
100
AcDbText
 10
505.895
 20
41.7615454545
 30
0.0
 40
2.54
  1
TITLE
  7
seiso_ttf
 11
505.895
 21
44.3015454545
 31
0.0
100
AcDbText
 73
         3
  0
TEXT
  5
8B
100
AcDbEntity
  8
DEFAULT
370
         0
390
0
  6
CONTINUOUS
 62
         7
100
AcDbText
 10
506.8475
 20
28.9345454545
 30
0.0
 40
2.54
  1
SIZE
  7
seiso_ttf
 11
506.8475
 21
31.4745454545
 31
0.0
100
AcDbText
 73
         3
  0
TEXT
  5
8D
100
AcDbEntity
  8
DEFAULT
370
         0
390
0
  6
CONTINUOUS
 62
         7
100
AcDbText
 10
507.6210454545
 20
24.7377727273
 30
0.0
 40
3.048
  1
A2
  7
seiso_ttfB
 11
507.6210454545
 21
27.7857727273
 31
0.0
100
AcDbText
 73
         3
  0
TEXT
  5
8E
100
AcDbEntity
  8
DEFAULT
370
         0
390
0
  6
CONTINUOUS
 62
         7
100
AcDbText
 10
515.42
 20
28.9345454545
 30
0.0
 40
2.54
  1
DWG NO
  7
seiso_ttf
 11
515.42
 21
31.4745454545
 31
0.0
100
AcDbText
 73
         3
  0
TEXT
  5
8F
100
AcDbEntity
  8
DEFAULT
370
         0
390
0
  6
CONTINUOUS
 62
         7
100
AcDbText
 10
577.0092272727
 20
28.9345454545
 30
0.0
 40
2.54
  1
REV
  7
seiso_ttf
 11
577.0092272727
 21
31.4745454545
 31
0.0
100
AcDbText
 73
         3
  0
INSERT
  5
91
100
AcDbEntity
  8
DEFAULT
370
         0
390
0
 62
         0
 48
0.0
100
AcDbBlockReference
  2
SE14
 10
0.0
 20
0.0
 30
0.0
  0
TEXT
  5
92
100
AcDbEntity
  8
DEFAULT
370
         0
390
0
  6
CONTINUOUS
 62
         7
100
AcDbText
 10
506.149
 20
11.7202727273
 30
0.0
 40
3.048
  1
SCALE:
  7
seiso_ttf
 11
506.149
 21
14.7682727273
 31
0.0
100
AcDbText
 73
         3
  0
TEXT
  5
93
100
AcDbEntity
  8
DEFAULT
370
         0
390
0
  6
CONTINUOUS
 62
         7
100
AcDbText
 10
528.374
 20
11.7202727273
 30
0.0
 40
3.048
  1
WEIGHT:
  7
seiso_ttf
 11
528.374
 21
14.7682727273
 31
0.0
100
AcDbText
 73
         3
  0
INSERT
  5
95
100
AcDbEntity
  8
DEFAULT
370
         0
390
0
 62
         0
 48
0.0
100
AcDbBlockReference
  2
SE15
 10
0.0
 20
0.0
 30
0.0
  0
LINE
  5
96
100
AcDbEntity
  8
DEFAULT
370
         0
390
0
  6
CONTINUOUS
 62
         7
100
AcDbLine
 10
457.0
 20
410.0
 30
0.0
 11
457.0
 21
390.95
 31
0.0
  0
LINE
  5
97
100
AcDbEntity
  8
DEFAULT
370
         0
390
0
  6
CONTINUOUS
 62
         7
100
AcDbLine
 10
466.652
 20
403.65
 30
0.0
 11
466.652
 21
390.95
 31
0.0
  0
LINE
  5
98
100
AcDbEntity
  8
DEFAULT
370
         0
390
0
  6
CONTINUOUS
 62
         7
100
AcDbLine
 10
536.248
 20
403.65
 30
0.0
 11
536.248
 21
390.95
 31
0.0
  0
LINE
  5
99
100
AcDbEntity
  8
DEFAULT
370
         0
390
0
  6
CONTINUOUS
 62
         7
100
AcDbLine
 10
558.6
 20
403.65
 30
0.0
 11
558.6
 21
390.95
 31
0.0
  0
LINE
  5
9A
100
AcDbEntity
  8
DEFAULT
370
         0
390
0
  6
CONTINUOUS
 62
         7
100
AcDbLine
 10
457.0
 20
403.65
 30
0.0
 11
584.0
 21
403.65
 31
0.0
  0
LINE
  5
9B
100
AcDbEntity
  8
DEFAULT
370
         0
390
0
  6
CONTINUOUS
 62
         7
100
AcDbLine
 10
457.0
 20
397.3
 30
0.0
 11
584.0
 21
397.3
 31
0.0
  0
TEXT
  5
9C
100
AcDbEntity
  8
DEFAULT
370
         0
390
0
  6
CONTINUOUS
 62
         7
100
AcDbText
 10
507.8923636364
 20
405.3702727273
 30
0.0
 40
3.048
  1
REVISION HISTORY
  7
seiso_ttf
 11
507.8923636364
 21
408.4182727273
 31
0.0
100
AcDbText
 73
         3
  0
TEXT
  5
9D
100
AcDbEntity
  8
DEFAULT
370
         0
390
0
  6
CONTINUOUS
 62
         7
100
AcDbText
 10
459.2282727273
 20
399.0202727273
 30
0.0
 40
3.048
  1
REV
  7
seiso_ttf
 11
459.2282727273
 21
402.0682727273
 31
0.0
100
AcDbText
 73
         3
  0
TEXT
  5
9E
100
AcDbEntity
  8
DEFAULT
370
         0
390
0
  6
CONTINUOUS
 62
         7
100
AcDbText
 10
492.687
 20
399.0202727273
 30
0.0
 40
3.048
  1
DESCRIPTION
  7
seiso_ttf
 11
492.687
 21
402.0682727273
 31
0.0
100
AcDbText
 73
         3
  0
TEXT
  5
9F
100
AcDbEntity
  8
DEFAULT
370
         0
390
0
  6
CONTINUOUS
 62
         7
100
AcDbText
 10
543.995
 20
399.0202727273
 30
0.0
 40
3.048
  1
DATE
  7
seiso_ttf
 11
543.995
 21
402.0682727273
 31
0.0
100
AcDbText
 73
         3
  0
TEXT
  5
A0
100
AcDbEntity
  8
DEFAULT
370
         0
390
0
  6
CONTINUOUS
 62
         7
100
AcDbText
 10
564.3380909091
 20
399.0202727273
 30
0.0
 40
3.048
  1
APPROVED
  7
seiso_ttf
 11
564.3380909091
 21
402.0682727273
 31
0.0
100
AcDbText
 73
         3
  0
ENDSEC
  0
SECTION
  2
OBJECTS
  0
DICTIONARY
  5
19
100
AcDbDictionary
280
         0
281
         1
  3
ACAD_GROUP
350
1A
  3
ACAD_MLINESTYLE
350
1B
  3
ACAD_LAYOUT
350
1E
  3
ACAD_PLOTSETTINGS
350
22
  3
ACAD_PLOTSTYLENAME
350
1F
  3
ACAD_WIPEOUT_VARS
350
23
  3
AcDbVariableDictionary
350
16B
  0
DICTIONARY
  5
1A
102
{ACAD_REACTORS
330
19
102
}
100
AcDbDictionary
280
         0
281
         1
  0
DICTIONARY
  5
1B
102
{ACAD_REACTORS
330
19
102
}
100
AcDbDictionary
280
         0
281
         1
  3
Standard
350
1C
  0
MLINESTYLE
  5
1C
102
{ACAD_REACTORS
330
1B
102
}
100
AcDbMlineStyle
  2
Standard
 70
         0
  3

 62
         0
 51
90.0
 52
90.0
 71
         2
 49
0.5
 62
       256
  6
ByLayer
 49
-0.5
 62
       256
  6
ByLayer
  0
ACDBDICTIONARYWDFLT
  5
1F
102
{ACAD_REACTORS
330
19
102
}
100
AcDbDictionary
281
         1
  3
Normal
350
1D
100
AcDbDictionaryWithDefault
340
1D
  0
ACDBPLACEHOLDER
  5
1D
102
{ACAD_REACTORS
330
1F
102
}
  0
LAYOUT
  5
20
102
{ACAD_REACTORS
330
1E
102
}
100
AcDbPlotSettings
  1

  2

  4

  6

 40
0.0
 41
0.0
 42
0.0
 43
0.0
 44
0.0
 45
0.0
 46
0.0
 47
0.0
 48
0.0
 49
0.0
140
0.0
141
0.0
142
1.0
143
1.0
 70
      1024
 72
         0
 73
         0
 74
         0
  7

 75
         0
147
1.0
148
0.0
149
0.0
100
AcDbLayout
  1
Model
 70
         0
 71
         0
 10
0.0
 20
0.0
 11
0.0
 21
0.0
 12
0.0
 22
0.0
 32
0.0
 14
0.0
 24
0.0
 34
0.0
 15
0.0
 25
0.0
 35
0.0
146
0.0
 13
0.0
 23
0.0
 33
0.0
 16
0.0
 26
0.0
 36
0.0
 17
0.0
 27
0.0
 37
0.0
 76
         0
330
A
331
0
345
0
346
0
  0
LAYOUT
  5
21
102
{ACAD_REACTORS
330
1E
102
}
100
AcDbPlotSettings
  1

  2

  4

  6

 40
0.0
 41
0.0
 42
0.0
 43
0.0
 44
0.0
 45
0.0
 46
0.0
 47
0.0
 48
0.0
 49
0.0
140
0.0
141
0.0
142
1.0
143
1.0
 70
         0
 72
         0
 73
         0
 74
         0
  7

 75
         0
147
1.0
148
0.0
149
0.0
100
AcDbLayout
  1
Layout1
 70
         0
 71
         0
 10
0.0
 20
0.0
 11
0.0
 21
0.0
 12
0.0
 22
0.0
 32
0.0
 14
0.0
 24
0.0
 34
0.0
 15
0.0
 25
0.0
 35
0.0
146
0.0
 13
0.0
 23
0.0
 33
0.0
 16
0.0
 26
0.0
 36
0.0
 17
0.0
 27
0.0
 37
0.0
 76
         0
330
B
331
0
345
0
346
0
  0
DICTIONARY
  5
1E
102
{ACAD_REACTORS
330
19
102
}
100
AcDbDictionary
280
         0
281
         1
  3
Layout1
350
21
  3
Model
350
20
  0
DICTIONARY
  5
22
102
{ACAD_REACTORS
330
19
102
}
100
AcDbDictionary
280
         0
281
         1
  0
WIPEOUTVARIABLES
  5
23
100
AcDbWipeoutVariables
 70
         1
  0
DICTIONARY
  5
3B
100
AcDbDictionary
280
         0
281
         0
  3
ACAD_FILTER
350
3C
  0
DICTIONARY
  5
3C
100
AcDbDictionary
280
         0
281
         0
  3
SPATIAL
350
3D
  0
SPATIAL_FILTER
  5
3D
100
AcDbFilter
100
AcDbSpatialFilter
 70
         2
 10
16.153820835
 20
76.3063982051
 10
400.8538296565
 20
406.0266356509
210
0.0
220
0.0
230
1.0
 11
0.0
 21
0.0
 31
0.0
 71
         1
 72
         0
 73
         0
 40
1.0
 40
0.0
 40
0.0
 40
0.0
 40
0.0
 40
1.0
 40
0.0
 40
0.0
 40
0.0
 40
0.0
 40
1.0
 40
0.0
 40
1.0
 40
0.0
 40
0.0
 40
0.0
 40
0.0
 40
1.0
 40
0.0
 40
0.0
 40
0.0
 40
0.0
 40
1.0
 40
0.0
  0
DICTIONARY
  5
42
100
AcDbDictionary
280
         0
281
         0
  3
ACAD_FILTER
350
43
  0
DICTIONARY
  5
43
100
AcDbDictionary
280
         0
281
         0
  3
SPATIAL
350
44
  0
SPATIAL_FILTER
  5
44
100
AcDbFilter
100
AcDbSpatialFilter
 70
         2
 10
411.8837619639
 20
76.3063982051
 10
506.0040569043
 20
406.0266356509
210
0.0
220
0.0
230
1.0
 11
0.0
 21
0.0
 31
0.0
 71
         1
 72
         0
 73
         0
 40
1.0
 40
0.0
 40
0.0
 40
0.0
 40
0.0
 40
1.0
 40
0.0
 40
0.0
 40
0.0
 40
0.0
 40
1.0
 40
0.0
 40
1.0
 40
0.0
 40
0.0
 40
0.0
 40
0.0
 40
1.0
 40
0.0
 40
0.0
 40
0.0
 40
0.0
 40
1.0
 40
0.0
  0
DICTIONARY
  5
49
100
AcDbDictionary
280
         0
281
         0
  3
ACAD_FILTER
350
4A
  0
DICTIONARY
  5
4A
100
AcDbDictionary
280
         0
281
         0
  3
SPATIAL
350
4B
  0
SPATIAL_FILTER
  5
4B
100
AcDbFilter
100
AcDbSpatialFilter
 70
         2
 10
16.153820835
 20
0.9959430957
 10
400.8538296565
 20
95.1162380361
210
0.0
220
0.0
230
1.0
 11
0.0
 21
0.0
 31
0.0
 71
         1
 72
         0
 73
         0
 40
1.0
 40
0.0
 40
0.0
 40
0.0
 40
0.0
 40
1.0
 40
0.0
 40
0.0
 40
0.0
 40
0.0
 40
1.0
 40
0.0
 40
1.0
 40
0.0
 40
0.0
 40
0.0
 40
0.0
 40
1.0
 40
0.0
 40
0.0
 40
0.0
 40
0.0
 40
1.0
 40
0.0
  0
DICTIONARY
  5
16B
100
AcDbDictionary
280
         0
281
         0
  3
DIMASSOC
350
16C
  0
DICTIONARYVAR
  5
16C
100
DictionaryVariables
280
         0
  1
2
  0
ENDSEC
  0
EOF
